<svg data-v-fde0c5aa="" xmlns="http://www.w3.org/2000/svg" viewBox="0 0 300 300" class="iconLeft"><!----><defs data-v-fde0c5aa=""><!----></defs><rect data-v-fde0c5aa="" fill="transparent" x="0" y="0" width="300px" height="300px" class="logo-background-square"></rect><defs data-v-fde0c5aa=""><!----></defs><g data-v-fde0c5aa="" id="0da0d52b-d34f-47a7-96d8-a547cf7cebd6" fill="#000000" transform="matrix(1.9703128049291125,0,0,1.9703128049291125,92.08993613094142,129.3905289247984)"><path d="M0.74 14.35L5.81 14.35C7.36 14.35 8.37 13.30 8.37 11.66C8.37 10.18 7.34 9.37 6.26 9.24L6.26 9.20C7.18 8.99 7.97 8.25 7.97 6.92C7.97 5.47 7.01 4.58 5.46 4.58L0.74 4.58L0.74 5.08L1.86 5.08L1.86 13.85L0.74 13.85ZM2.77 9.53L5.52 9.53C6.73 9.53 7.39 10.35 7.39 11.37L7.39 11.97C7.39 12.99 6.73 13.80 5.52 13.80L2.77 13.80ZM2.77 5.12L5.29 5.12C6.40 5.12 6.99 5.85 6.99 6.76L6.99 7.36C6.99 8.27 6.40 9.00 5.29 9.00L2.77 9.00ZM9.94 14.35L13.30 14.35L13.30 13.85L11.91 13.85L11.91 9.25C11.91 8.39 12.85 7.48 13.68 7.48C13.79 7.48 13.97 7.49 14.03 7.50L14.03 7.53C13.86 7.56 13.71 7.77 13.71 8.06C13.71 8.41 13.97 8.67 14.38 8.67C14.76 8.67 15.02 8.40 15.02 7.95C15.02 7.35 14.57 7.01 13.86 7.01C12.80 7.01 12.22 7.71 11.96 8.36L11.89 8.36L11.89 7.04L9.94 7.36L9.94 7.74L11.05 7.90L11.05 13.85L9.94 13.85ZM18.14 14.52C19.47 14.52 20.06 13.86 20.33 13.22L20.38 13.22L20.38 13.55C20.38 14.15 20.71 14.49 21.36 14.49C21.73 14.49 22.13 14.39 22.33 14.27L22.33 13.89L21.22 13.89L21.22 9.23C21.22 7.81 20.30 7.01 18.80 7.01C17.25 7.01 16.25 7.71 16.25 8.44C16.25 8.86 16.51 9.10 16.88 9.10C17.28 9.10 17.53 8.86 17.53 8.46C17.53 8.13 17.33 7.95 17.12 7.85L17.12 7.83C17.40 7.64 17.89 7.52 18.54 7.52C19.73 7.52 20.36 8.16 20.36 9.35L20.36 10.49L19.12 10.49C16.80 10.49 15.93 11.20 15.93 12.59C15.93 13.76 16.76 14.52 18.14 14.52ZM18.47 13.93C17.44 13.93 16.87 13.45 16.87 12.70L16.87 12.39C16.87 11.45 17.43 10.93 19.24 10.93L20.36 10.93L20.36 12.35C20.36 13.33 19.53 13.93 18.47 13.93ZM26.74 14.52C28.25 14.52 29.06 13.61 29.43 12.71L29.05 12.49C28.66 13.24 28.04 13.85 26.85 13.85C25.41 13.85 24.47 12.75 24.47 11.10L24.47 10.19C24.47 8.64 25.42 7.53 26.89 7.53C27.50 7.53 27.94 7.62 28.25 7.81L28.25 7.85C27.94 7.98 27.75 8.23 27.75 8.57C27.75 8.95 27.99 9.25 28.45 9.25C28.88 9.25 29.16 8.96 29.16 8.50C29.16 7.66 28.20 7.01 26.81 7.01C24.84 7.01 23.51 8.40 23.51 10.77C23.51 13.09 24.72 14.52 26.74 14.52ZM30.42 14.35L33.50 14.35L33.50 13.85L32.40 13.85L32.40 11.87L33.66 10.60L36.01 13.85L35.06 13.85L35.06 14.35L37.84 14.35L37.84 13.85L37.00 13.85L34.26 10.02L36.51 7.69L37.52 7.69L37.52 7.18L34.69 7.18L34.69 7.69L35.71 7.69L33.67 9.87L32.45 11.17L32.40 11.17L32.40 3.60L30.42 3.92L30.42 4.30L31.53 4.45L31.53 13.85L30.42 13.85ZM41.75 14.52C43.26 14.52 44.16 13.61 44.53 12.71L44.16 12.49C43.75 13.24 43.06 13.85 41.87 13.85C40.45 13.85 39.49 12.84 39.49 11.06L39.49 10.63L44.69 10.63L44.69 10.37C44.69 8.41 43.55 7.01 41.72 7.01C39.86 7.01 38.53 8.47 38.53 10.77C38.53 13.13 39.76 14.52 41.75 14.52ZM39.49 10.05C39.49 8.58 40.32 7.53 41.72 7.53C43.09 7.53 43.76 8.61 43.76 10.04L43.76 10.14L39.49 10.14ZM48.06 14.41C48.62 14.41 49.45 14.32 49.80 14.20L49.80 13.80L47.87 13.80L47.87 7.73L49.80 7.73L49.80 7.18L47.87 7.18L47.87 5.25L47.36 5.25L47.14 6.58C47.05 7.00 46.91 7.18 46.23 7.18L46.03 7.18L46.03 7.73L47.00 7.73L47.00 13.40C47.00 14.14 47.25 14.41 48.06 14.41ZM54.17 13.97C52.65 13.97 51.91 12.91 51.91 11.38L51.91 10.15C51.91 8.62 52.65 7.56 54.17 7.56C55.68 7.56 56.42 8.62 56.42 10.15L56.42 11.38C56.42 12.91 55.68 13.97 54.17 13.97ZM54.17 14.52C56.14 14.52 57.40 13.12 57.40 10.77C57.40 8.41 56.14 7.01 54.17 7.01C52.19 7.01 50.93 8.41 50.93 10.77C50.93 13.12 52.19 14.52 54.17 14.52ZM58.58 14.35L61.66 14.35L61.66 13.85L60.55 13.85L60.55 3.60L58.58 3.92L58.58 4.30L59.68 4.45L59.68 13.85L58.58 13.85ZM66.07 13.97C64.55 13.97 63.81 12.91 63.81 11.38L63.81 10.15C63.81 8.62 64.55 7.56 66.07 7.56C67.58 7.56 68.32 8.62 68.32 10.15L68.32 11.38C68.32 12.91 67.58 13.97 66.07 13.97ZM66.07 14.52C68.04 14.52 69.30 13.12 69.30 10.77C69.30 8.41 68.04 7.01 66.07 7.01C64.09 7.01 62.83 8.41 62.83 10.77C62.83 13.12 64.09 14.52 66.07 14.52ZM73.70 17.32C76.02 17.32 77.27 16.51 77.27 15.12C77.27 13.97 76.51 13.30 74.86 13.30L73.09 13.30C72.21 13.30 71.90 13.05 71.90 12.61C71.90 12.15 72.38 11.80 72.98 11.68C73.22 11.73 73.47 11.76 73.74 11.76C75.31 11.76 76.43 10.85 76.43 9.39C76.43 8.75 76.22 8.32 75.99 8.01C75.99 7.66 76.01 7.14 76.05 7.04L76.09 7.04C76.17 7.24 76.36 7.36 76.61 7.36C76.97 7.36 77.20 7.14 77.20 6.80C77.20 6.45 76.94 6.24 76.59 6.24C76.06 6.24 75.68 6.62 75.68 7.67C75.24 7.28 74.61 7.01 73.74 7.01C72.18 7.01 71.06 7.92 71.06 9.39C71.06 10.42 71.61 11.17 72.48 11.52L72.48 11.58C71.85 11.75 71.25 12.17 71.25 12.87C71.25 13.41 71.55 13.80 72.11 13.99L72.11 14.03C71.33 14.24 70.63 14.77 70.63 15.55C70.63 16.62 71.47 17.32 73.70 17.32ZM73.74 11.28C72.62 11.28 72.00 10.61 72.00 9.66L72.00 9.11C72.00 8.16 72.63 7.49 73.75 7.49C74.87 7.49 75.49 8.16 75.49 9.11L75.49 9.66C75.49 10.61 74.86 11.28 73.74 11.28ZM71.41 15.51C71.41 14.85 71.79 14.39 72.51 14.14L74.72 14.14C76.05 14.14 76.51 14.56 76.51 15.32C76.51 16.27 75.56 16.79 74.09 16.79L73.40 16.79C72.20 16.79 71.41 16.34 71.41 15.51ZM79.49 17.32C80.42 17.32 81.03 16.63 81.47 15.51L84.49 7.69L85.22 7.69L85.22 7.18L82.67 7.18L82.67 7.69L83.85 7.69L81.76 13.38L81.72 13.38L79.58 7.69L80.75 7.69L80.75 7.18L77.91 7.18L77.91 7.69L78.64 7.69L81.30 14.56L80.98 15.41C80.58 16.45 80.09 16.90 79.52 16.90C79.37 16.90 79.23 16.88 79.11 16.84L79.11 16.81C79.30 16.74 79.46 16.56 79.46 16.30C79.46 15.93 79.25 15.71 78.89 15.71C78.48 15.71 78.26 15.97 78.26 16.37C78.26 16.90 78.64 17.32 79.49 17.32Z"></path></g><defs data-v-fde0c5aa=""><linearGradient data-v-fde0c5aa="" gradientTransform="rotate(25)" id="40d65c70-649b-4433-890e-e0afc9e8f253" x1="0%" y1="0%" x2="100%" y2="0%"><stop data-v-fde0c5aa="" offset="0%" stop-color="#693F24" stop-opacity="1"></stop><stop data-v-fde0c5aa="" offset="100%" stop-color="#9C9289" stop-opacity="1"></stop></linearGradient></defs><g data-v-fde0c5aa="" id="db9c9c19-635c-45a4-9dee-50dfb5d6759e" stroke="none" fill="url(#40d65c70-649b-4433-890e-e0afc9e8f253)" transform="matrix(0.5342288117287332,0,0,0.5342288117287332,33.5892542592552,123.2623823159122)"><path d="M49.95 12.098C29.024 12.098 12 29.123 12 50.048 12 70.975 29.024 88 49.95 88 70.876 88 87.9 70.975 87.9 50.048c0-20.925-17.024-37.95-37.95-37.95zm20.817 11.247c-3.028 0-7.587.421-13.211 2.202-1.977-2.534-3.03-4.977-3.032-7.097 0-.885.184-1.54.337-1.936a3.81 3.81 0 0 1 .143-.316 34.07 34.07 0 0 1 16.333 7.157c-.191-.003-.378-.01-.57-.01zm13.308 24.208c-1.149-1.496-2.399-2.802-3.415-3.776-2.106-2.015-4.416-3.765-6.335-4.798-3.075-1.656-9.258-4.987-15.078-11.431 4.886-1.439 8.848-1.795 11.536-1.796.718 0 1.414.024 2.132.073.282.019.516.039.706.055.2.017.355.03.474.035l.104.005c5.612 5.638 9.267 13.22 9.876 21.633zM52.521 15.929a7.76 7.76 0 0 0-.404 2.521c-.001 1.771.559 4.511 3.037 7.921a60.127 60.127 0 0 0-5.417 2.308c-5.021-6.312-9.124-9.323-11.662-10.729a34.047 34.047 0 0 1 11.874-2.126 33.62 33.62 0 0 1 2.572.105zm-17.41 3.281c1.238.412 5.881 2.41 12.445 10.577a73.114 73.114 0 0 0-7.417 4.553 21.36 21.36 0 0 0-1.254-1.395c-2.529-2.559-5.644-3.856-9.279-3.856-2.519.001-5.199.625-7.965 1.854-.037.016-.069.032-.106.049A34.46 34.46 0 0 1 35.111 19.21zM19.19 35.056l.41-.282c.052-.036 1.292-.883 3.196-1.71 1.644-.716 4.158-1.568 6.808-1.568 3 .005 5.476 1.033 7.569 3.143.356.359.688.731 1.008 1.107-.569.422-1.141.853-1.717 1.303-7.136 5.57-12.292 11.522-15.324 17.689-1.7 3.458-2.434 6.413-2.735 8.586a34.044 34.044 0 0 1-2.68-13.276 34.001 34.001 0 0 1 3.465-14.992zm1.585 32.865l.027-.004-.116-.726c-.003-.019-.07-.45-.07-1.231 0-1.756.348-5.411 2.683-10.159 2.871-5.837 7.798-11.508 14.646-16.856a88 88 0 0 1 1.672-1.268 18.26 18.26 0 0 1 1.921 3.972c.842 2.451 1.251 5.198 1.251 8.4.001 4.953-1.007 10.379-1.993 15.031-.723 3.419-1.089 6.708-1.089 9.776 0 3.812.559 6.524 1.035 8.15-8.396-2.349-15.5-7.819-19.967-15.085zM43.516 83.66c-.271-.618-1.403-3.523-1.403-8.804 0-2.903.349-6.025 1.039-9.278 1.01-4.781 2.043-10.364 2.044-15.53 0-3.472-.453-6.475-1.383-9.181a20.7 20.7 0 0 0-2.244-4.59 70.312 70.312 0 0 1 7.489-4.557 94.259 94.259 0 0 1 4.48 6.553c4.771 7.617 8.488 14.809 11.052 21.375 2.469 6.323 3.772 11.941 3.771 16.244 0 1.145-.097 2.201-.275 3.165a34.013 34.013 0 0 1-18.134 5.219 34.28 34.28 0 0 1-6.436-.616zm27.207-6.434c.026-.436.042-.878.042-1.334-.001-4.67-1.325-10.43-3.935-17.119-2.615-6.701-6.402-14.027-11.254-21.777a95.413 95.413 0 0 0-4.335-6.366 56.522 56.522 0 0 1 5.514-2.278c6.293 7.272 13.105 10.954 16.431 12.744 1.712.922 3.886 2.574 5.812 4.419 2.156 2.064 3.899 4.252 4.911 6.16l.204.386c-.598 10.243-5.718 19.286-13.39 25.165z"></path></g><!----></svg>