<svg data-v-fde0c5aa="" xmlns="http://www.w3.org/2000/svg" viewBox="0 0 300 300" class="iconLeft"><!----><defs data-v-fde0c5aa=""><!----></defs><rect data-v-fde0c5aa="" fill="transparent" x="0" y="0" width="300px" height="300px" class="logo-background-square"></rect><defs data-v-fde0c5aa=""><!----></defs><g data-v-fde0c5aa="" id="ad4b16d6-4bfc-4511-9861-fae3f432712e" fill="#000000" transform="matrix(1.5554631674810449,0,0,1.5554631674810449,71.35342560899575,137.26075694017723)"><path d="M3.75 12.64L2.59 12.66L2.59 8.44L4.65 8.44L4.65 8.44Q5.03 8.44 5.23 8.60L5.23 8.60L5.23 8.60Q5.43 8.75 5.43 9.20L5.43 9.20L5.43 9.30L5.68 9.30L5.68 7.03L5.43 7.03L5.43 7.17L5.43 7.17Q5.43 7.52 5.23 7.72L5.23 7.72L5.23 7.72Q5.03 7.92 4.65 7.92L4.65 7.92L2.59 7.92L2.59 3.82L5.24 3.82L5.24 3.82Q5.77 3.82 6.11 4.06L6.11 4.06L6.11 4.06Q6.45 4.30 6.45 4.84L6.45 4.84L6.45 5.73L7.01 5.73L6.93 3.30L0.24 3.30L0.24 3.84L1.36 3.82L1.36 12.64L0.24 12.64L0.24 13.17L3.75 13.17L3.75 12.64ZM12.52 12.66L12.52 6.97L12.19 7.03L12.19 7.03Q12.04 7.06 11.83 7.08L11.83 7.08L11.83 7.08Q11.62 7.10 11.34 7.11L11.34 7.11L11.34 7.11Q11.06 7.13 10.85 7.13L10.85 7.13L10.85 7.13Q10.64 7.13 10.49 7.13L10.49 7.13L10.49 7.64L11.45 7.64L11.45 11.76L11.45 11.76Q11.44 11.91 11.28 12.09L11.28 12.09L11.28 12.09Q11.13 12.26 10.87 12.41L10.87 12.41L10.87 12.41Q10.61 12.56 10.26 12.66L10.26 12.66L10.26 12.66Q9.91 12.75 9.51 12.75L9.51 12.75L9.51 12.75Q8.79 12.75 8.79 11.97L8.79 11.97L8.79 6.97L8.44 7.03L8.44 7.03Q8.29 7.06 8.08 7.08L8.08 7.08L8.08 7.08Q7.87 7.10 7.59 7.11L7.59 7.11L7.59 7.11Q7.31 7.13 7.10 7.13L7.10 7.13L7.10 7.13Q6.90 7.13 6.76 7.13L6.76 7.13L6.76 7.64L7.74 7.64L7.74 11.97L7.74 11.97Q7.74 13.26 9.23 13.26L9.23 13.26L9.23 13.26Q9.87 13.26 10.45 13.09L10.45 13.09L10.45 13.09Q11.03 12.92 11.45 12.52L11.45 12.52L11.45 13.17L13.50 13.17L13.50 12.66L12.52 12.66ZM14.20 3.28L14.20 3.78L15.19 3.78L15.22 12.66L14.20 12.66L14.20 13.17L17.19 13.17L17.19 12.66L16.25 12.67L16.25 3.09L16.25 3.09Q16.09 3.19 15.91 3.23L15.91 3.23L15.91 3.23Q15.74 3.28 15.44 3.28L15.44 3.28L14.20 3.28ZM17.89 3.28L17.89 3.78L18.89 3.78L18.91 12.66L17.89 12.66L17.89 13.17L20.89 13.17L20.89 12.66L19.95 12.67L19.95 3.09L19.95 3.09Q19.78 3.19 19.61 3.23L19.61 3.23L19.61 3.23Q19.43 3.28 19.14 3.28L19.14 3.28L17.89 3.28ZM31.65 11.10L31.65 11.10L31.65 9.67L31.65 9.67Q31.65 9.20 31.57 8.83L31.57 8.83L31.57 8.83Q31.49 8.47 31.24 8.21L31.24 8.21L31.24 8.21Q31.00 7.95 30.55 7.79L30.55 7.79L30.55 7.79Q30.10 7.63 29.39 7.55L29.39 7.55L28.15 7.55L28.15 7.55Q27.72 7.50 27.41 7.43L27.41 7.43L27.41 7.43Q27.09 7.35 26.89 7.21L26.89 7.21L26.89 7.21Q26.68 7.07 26.59 6.85L26.59 6.85L26.59 6.85Q26.49 6.64 26.49 6.30L26.49 6.30L26.49 5.18L26.49 5.18Q26.49 3.71 27.96 3.71L27.96 3.71L27.96 3.71Q28.55 3.71 29.06 3.81L29.06 3.81L29.06 3.81Q29.58 3.92 29.97 4.12L29.97 4.12L29.97 4.12Q30.35 4.33 30.57 4.61L30.57 4.61L30.57 4.61Q30.79 4.89 30.79 5.24L30.79 5.24L30.79 6.06L31.35 6.06L31.35 3.36L30.97 3.36L30.97 3.36Q30.97 3.42 30.88 3.56L30.88 3.56L30.88 3.56Q30.84 3.63 30.76 3.63L30.76 3.63L30.76 3.63Q30.67 3.63 30.55 3.54L30.55 3.54L30.55 3.54Q30.21 3.47 29.91 3.41L29.91 3.41L29.91 3.41Q29.61 3.35 29.29 3.30L29.29 3.30L29.29 3.30Q28.97 3.25 28.60 3.22L28.60 3.22L28.60 3.22Q28.24 3.19 27.80 3.19L27.80 3.19L27.80 3.19Q26.80 3.19 26.25 3.73L26.25 3.73L26.25 3.73Q25.70 4.27 25.70 5.28L25.70 5.28L25.70 6.59L25.70 6.59Q25.70 7.10 25.80 7.50L25.80 7.50L25.80 7.50Q25.90 7.91 26.16 8.18L26.16 8.18L26.16 8.18Q26.42 8.46 26.86 8.60L26.86 8.60L26.86 8.60Q27.30 8.75 27.97 8.75L27.97 8.75L29.16 8.75L29.16 8.75Q29.71 8.81 30.04 8.93L30.04 8.93L30.04 8.93Q30.37 9.04 30.54 9.23L30.54 9.23L30.54 9.23Q30.72 9.41 30.78 9.66L30.78 9.66L30.78 9.66Q30.84 9.91 30.84 10.25L30.84 10.25L30.84 11.31L30.84 11.31Q30.84 12.77 29.25 12.77L29.25 12.77L29.25 12.77Q28.60 12.77 28.05 12.66L28.05 12.66L28.05 12.66Q27.50 12.54 27.08 12.34L27.08 12.34L27.08 12.34Q26.67 12.14 26.44 11.84L26.44 11.84L26.44 11.84Q26.21 11.55 26.21 11.17L26.21 11.17L26.21 10.22L25.65 10.22L25.65 13.22L26.04 13.22L26.04 13.22Q26.05 13.16 26.08 13.02L26.08 13.02L26.08 13.02Q26.10 12.92 26.21 12.92L26.21 12.92L26.21 12.92Q26.25 12.92 26.33 12.95L26.33 12.95L26.33 12.95Q26.68 13.01 27.01 13.07L27.01 13.07L27.01 13.07Q27.34 13.13 27.69 13.18L27.69 13.18L27.69 13.18Q28.04 13.23 28.43 13.26L28.43 13.26L28.43 13.26Q28.81 13.29 29.27 13.29L29.27 13.29L29.27 13.29Q30.41 13.29 31.03 12.73L31.03 12.73L31.03 12.73Q31.65 12.17 31.65 11.10ZM33.94 12.14L33.94 12.14L33.94 7.63L35.36 7.63L35.36 7.13L33.94 7.13L33.94 5.08L33.39 5.08L33.39 5.08Q33.32 5.84 33.09 6.35L33.09 6.35L33.09 6.35Q32.86 6.86 32.35 7.13L32.35 7.13L31.88 7.13L31.88 7.63L32.89 7.63L32.89 12.15L32.89 12.15Q32.89 13.26 34.20 13.26L34.20 13.26L34.20 13.26Q34.79 13.26 35.06 13.09L35.06 13.09L35.06 13.09Q35.34 12.92 35.48 12.73L35.48 12.73L35.48 12.43L35.38 12.31L35.38 12.31Q35.35 12.43 35.12 12.59L35.12 12.59L35.12 12.59Q34.89 12.75 34.57 12.75L34.57 12.75L34.57 12.75Q34.22 12.75 34.08 12.62L34.08 12.62L34.08 12.62Q33.94 12.49 33.94 12.14ZM40.36 10.23L40.36 12.15L40.36 12.15Q40.12 12.38 39.70 12.53L39.70 12.53L39.70 12.53Q39.27 12.68 38.56 12.68L38.56 12.68L38.56 12.68Q38.07 12.68 37.91 12.47L37.91 12.47L37.91 12.47Q37.76 12.26 37.76 11.79L37.76 11.79L37.76 11.28L37.76 11.28Q37.76 10.74 38.02 10.50L38.02 10.50L38.02 10.50Q38.29 10.26 39.00 10.25L39.00 10.25L40.36 10.23ZM40.38 12.82L40.38 12.82L40.38 12.82Q40.42 12.98 40.57 13.12L40.57 13.12L40.57 13.12Q40.73 13.26 40.99 13.26L40.99 13.26L40.99 13.26Q41.44 13.26 41.81 13.15L41.81 13.15L41.81 13.15Q42.18 13.05 42.48 12.88L42.48 12.88L42.41 12.42L42.41 12.42Q42.28 12.49 42.04 12.60L42.04 12.60L42.04 12.60Q41.80 12.71 41.62 12.71L41.62 12.71L41.62 12.71Q41.48 12.71 41.45 12.59L41.45 12.59L41.45 12.59Q41.41 12.47 41.41 12.19L41.41 12.19L41.41 8.39L41.41 8.39Q41.41 7.67 40.94 7.32L40.94 7.32L40.94 7.32Q40.46 6.97 39.58 6.97L39.58 6.97L38.63 6.97L38.63 6.97Q37.83 6.97 37.41 7.29L37.41 7.29L37.41 7.29Q37.00 7.60 37.00 8.19L37.00 8.19L37.00 8.64L37.00 8.64Q37.10 8.99 37.53 9.02L37.53 9.02L37.53 9.02Q37.91 9.02 38.07 8.72L38.07 8.72L38.07 8.72Q38.07 8.47 37.95 8.33L37.95 8.33L37.95 8.33Q37.84 8.19 37.83 8.04L37.83 8.04L37.83 8.04Q37.83 7.74 38.08 7.61L38.08 7.61L38.08 7.61Q38.33 7.48 38.77 7.48L38.77 7.48L39.47 7.48L39.47 7.48Q39.91 7.48 40.14 7.61L40.14 7.61L40.14 7.61Q40.36 7.74 40.36 8.18L40.36 8.18L40.36 9.77L38.88 9.79L38.88 9.79Q37.79 9.80 37.23 10.15L37.23 10.15L37.23 10.15Q36.67 10.50 36.67 11.17L36.67 11.17L36.67 12.04L36.67 12.04Q36.67 12.63 36.98 12.94L36.98 12.94L36.98 12.94Q37.30 13.26 37.97 13.26L37.97 13.26L37.97 13.26Q38.60 13.26 39.22 13.17L39.22 13.17L39.22 13.17Q39.84 13.09 40.38 12.82ZM47.99 11.31L47.49 11.31L47.49 11.31Q47.47 11.56 47.40 11.82L47.40 11.82L47.40 11.82Q47.32 12.08 47.19 12.29L47.19 12.29L47.19 12.29Q47.05 12.50 46.85 12.63L46.85 12.63L46.85 12.63Q46.65 12.75 46.38 12.75L46.38 12.75L45.43 12.75L45.43 12.75Q44.84 12.75 44.60 12.41L44.60 12.41L44.60 12.41Q44.35 12.07 44.35 11.40L44.35 11.40L44.35 8.75L44.35 8.75Q44.35 8.08 44.63 7.78L44.63 7.78L44.63 7.78Q44.90 7.48 45.50 7.48L45.50 7.48L45.50 7.48Q46.16 7.48 46.47 7.55L46.47 7.55L46.47 7.55Q46.77 7.62 46.94 7.69L46.94 7.69L46.94 7.69Q46.94 7.85 46.86 8.06L46.86 8.06L46.86 8.06Q46.79 8.23 46.76 8.53L46.76 8.53L46.76 8.53Q46.86 8.86 47.31 8.86L47.31 8.86L47.31 8.86Q47.74 8.85 47.85 8.53L47.85 8.53L47.85 7.60L47.85 7.60Q47.49 7.31 46.89 7.14L46.89 7.14L46.89 7.14Q46.28 6.97 45.44 6.97L45.44 6.97L45.44 6.97Q44.97 6.97 44.56 7.14L44.56 7.14L44.56 7.14Q44.16 7.31 43.86 7.59L43.86 7.59L43.86 7.59Q43.57 7.88 43.41 8.28L43.41 8.28L43.41 8.28Q43.25 8.68 43.25 9.14L43.25 9.14L43.25 11.26L43.25 11.26Q43.25 11.70 43.39 12.07L43.39 12.07L43.39 12.07Q43.54 12.43 43.81 12.70L43.81 12.70L43.81 12.70Q44.09 12.96 44.47 13.11L44.47 13.11L44.47 13.11Q44.86 13.26 45.32 13.26L45.32 13.26L46.80 13.26L46.80 13.26Q47.07 13.26 47.29 13.10L47.29 13.10L47.29 13.10Q47.50 12.95 47.66 12.69L47.66 12.69L47.66 12.69Q47.81 12.43 47.89 12.07L47.89 12.07L47.89 12.07Q47.98 11.72 47.99 11.31L47.99 11.31ZM48.94 3.28L48.94 3.78L49.91 3.78L49.91 12.66L48.94 12.66L48.94 13.17L51.46 13.17L51.46 12.66L50.97 12.67L50.97 10.50L51.21 10.28L53.34 12.67L52.43 12.66L52.43 13.17L55.54 13.17L55.54 12.66L55.54 12.66Q55.27 12.66 55.09 12.66L55.09 12.66L55.09 12.66Q54.92 12.66 54.84 12.64L54.84 12.64L54.84 12.64Q54.67 12.61 54.61 12.54L54.61 12.54L52.19 9.79L54.05 7.81L54.05 7.81Q54.22 7.69 54.39 7.67L54.39 7.67L54.39 7.67Q54.49 7.66 54.69 7.65L54.69 7.65L54.69 7.65Q54.89 7.64 55.20 7.64L55.20 7.64L55.20 7.13L52.36 7.13L52.36 7.64L52.36 7.64Q52.99 7.64 53.20 7.70L53.20 7.70L53.20 7.70Q53.34 7.71 53.34 7.80L53.34 7.80L53.34 7.80Q53.34 7.85 53.26 7.94L53.26 7.94L50.97 10.36L50.97 3.09L50.97 3.09Q50.82 3.19 50.65 3.23L50.65 3.23L50.65 3.23Q50.47 3.28 50.18 3.28L50.18 3.28L48.94 3.28ZM63.32 12.64L62.16 12.66L62.16 8.44L64.22 8.44L64.22 8.44Q64.60 8.44 64.80 8.60L64.80 8.60L64.80 8.60Q65.00 8.75 65.00 9.20L65.00 9.20L65.00 9.30L65.25 9.30L65.25 7.03L65.00 7.03L65.00 7.17L65.00 7.17Q65.00 7.52 64.80 7.72L64.80 7.72L64.80 7.72Q64.60 7.92 64.22 7.92L64.22 7.92L62.16 7.92L62.16 3.82L64.81 3.82L64.81 3.82Q65.34 3.82 65.68 4.06L65.68 4.06L65.68 4.06Q66.02 4.30 66.02 4.84L66.02 4.84L66.02 5.73L66.58 5.73L66.50 3.30L59.81 3.30L59.81 3.84L60.93 3.82L60.93 12.64L59.81 12.64L59.81 13.17L63.32 13.17L63.32 12.64ZM67.72 3.28L67.72 3.78L68.71 3.78L68.74 12.66L67.72 12.66L67.72 13.17L70.71 13.17L70.71 12.66L69.78 12.67L69.78 3.09L69.78 3.09Q69.61 3.19 69.43 3.23L69.43 3.23L69.43 3.23Q69.26 3.28 68.96 3.28L68.96 3.28L67.72 3.28ZM75.56 10.23L75.56 12.15L75.56 12.15Q75.32 12.38 74.89 12.53L74.89 12.53L74.89 12.53Q74.47 12.68 73.75 12.68L73.75 12.68L73.75 12.68Q73.26 12.68 73.11 12.47L73.11 12.47L73.11 12.47Q72.95 12.26 72.95 11.79L72.95 11.79L72.95 11.28L72.95 11.28Q72.95 10.74 73.22 10.50L73.22 10.50L73.22 10.50Q73.49 10.26 74.20 10.25L74.20 10.25L75.56 10.23ZM75.57 12.82L75.57 12.82L75.57 12.82Q75.61 12.98 75.77 13.12L75.77 13.12L75.77 13.12Q75.92 13.26 76.19 13.26L76.19 13.26L76.19 13.26Q76.64 13.26 77.01 13.15L77.01 13.15L77.01 13.15Q77.38 13.05 77.67 12.88L77.67 12.88L77.60 12.42L77.60 12.42Q77.48 12.49 77.24 12.60L77.24 12.60L77.24 12.60Q77 12.71 76.82 12.71L76.82 12.71L76.82 12.71Q76.68 12.71 76.64 12.59L76.64 12.59L76.64 12.59Q76.61 12.47 76.61 12.19L76.61 12.19L76.61 8.39L76.61 8.39Q76.61 7.67 76.13 7.32L76.13 7.32L76.13 7.32Q75.66 6.97 74.77 6.97L74.77 6.97L73.82 6.97L73.82 6.97Q73.02 6.97 72.61 7.29L72.61 7.29L72.61 7.29Q72.20 7.60 72.20 8.19L72.20 8.19L72.20 8.64L72.20 8.64Q72.30 8.99 72.73 9.02L72.73 9.02L72.73 9.02Q73.11 9.02 73.26 8.72L73.26 8.72L73.26 8.72Q73.26 8.47 73.15 8.33L73.15 8.33L73.15 8.33Q73.04 8.19 73.02 8.04L73.02 8.04L73.02 8.04Q73.02 7.74 73.28 7.61L73.28 7.61L73.28 7.61Q73.53 7.48 73.96 7.48L73.96 7.48L74.66 7.48L74.66 7.48Q75.11 7.48 75.33 7.61L75.33 7.61L75.33 7.61Q75.56 7.74 75.56 8.18L75.56 8.18L75.56 9.77L74.07 9.79L74.07 9.79Q72.98 9.80 72.42 10.15L72.42 10.15L72.42 10.15Q71.86 10.50 71.86 11.17L71.86 11.17L71.86 12.04L71.86 12.04Q71.86 12.63 72.18 12.94L72.18 12.94L72.18 12.94Q72.49 13.26 73.16 13.26L73.16 13.26L73.16 13.26Q73.79 13.26 74.42 13.17L74.42 13.17L74.42 13.17Q75.04 13.09 75.57 12.82ZM83.12 11.61L83.12 11.61L83.12 10.85L83.12 10.85Q83.12 10.57 83.05 10.34L83.05 10.34L83.05 10.34Q82.98 10.11 82.81 9.94L82.81 9.94L82.81 9.94Q82.64 9.77 82.36 9.67L82.36 9.67L82.36 9.67Q82.07 9.58 81.65 9.58L81.65 9.58L80.75 9.58L80.75 9.58Q80.40 9.58 80.19 9.53L80.19 9.53L80.19 9.53Q79.97 9.48 79.86 9.38L79.86 9.38L79.86 9.38Q79.74 9.28 79.70 9.16L79.70 9.16L79.70 9.16Q79.66 9.03 79.66 8.88L79.66 8.88L79.66 8.29L79.66 8.29Q79.66 7.91 79.88 7.69L79.88 7.69L79.88 7.69Q80.09 7.48 80.57 7.48L80.57 7.48L80.57 7.48Q81.41 7.48 81.83 7.69L81.83 7.69L81.83 7.69Q82.25 7.91 82.35 8.25L82.35 8.25L82.35 8.74L82.85 8.72L82.82 7.01L82.73 7.01L82.73 7.01Q82.73 7.17 82.66 7.20L82.66 7.20L82.66 7.20Q82.61 7.20 82.59 7.18L82.59 7.18L82.59 7.18Q82.22 7.11 81.65 7.04L81.65 7.04L81.65 7.04Q81.07 6.97 80.40 6.97L80.40 6.97L80.40 6.97Q79.73 6.97 79.37 7.31L79.37 7.31L79.37 7.31Q79.02 7.66 79.02 8.37L79.02 8.37L79.02 9.24L79.02 9.24Q79.02 9.95 79.39 10.23L79.39 10.23L79.39 10.23Q79.77 10.51 80.37 10.51L80.37 10.51L81.38 10.51L81.38 10.51Q81.98 10.51 82.17 10.75L82.17 10.75L82.17 10.75Q82.36 10.99 82.36 11.37L82.36 11.37L82.36 11.76L82.36 11.76Q82.36 12.75 81.42 12.75L81.42 12.75L81.42 12.75Q81.02 12.75 80.67 12.70L80.67 12.70L80.67 12.70Q80.32 12.64 80.05 12.52L80.05 12.52L80.05 12.52Q79.79 12.39 79.62 12.20L79.62 12.20L79.62 12.20Q79.45 12.01 79.41 11.76L79.41 11.76L79.41 11.27L78.88 11.28L78.89 13.22L78.99 13.22L78.99 13.22Q78.99 13.02 79.06 12.99L79.06 12.99L79.11 12.98L79.11 12.98Q79.16 12.98 79.18 13.01L79.18 13.01L79.18 13.01Q79.67 13.13 80.22 13.20L80.22 13.20L80.22 13.20Q80.77 13.27 81.40 13.27L81.40 13.27L81.40 13.27Q82.24 13.27 82.68 12.84L82.68 12.84L82.68 12.84Q83.12 12.42 83.12 11.61ZM90.65 12.66L89.67 12.67L89.67 8.23L89.67 8.23Q89.67 7.60 89.28 7.29L89.28 7.29L89.28 7.29Q88.89 6.97 88.13 6.97L88.13 6.97L88.13 6.97Q87.49 6.97 86.91 7.15L86.91 7.15L86.91 7.15Q86.34 7.34 85.88 7.71L85.88 7.71L85.88 3.09L85.88 3.09Q85.71 3.19 85.53 3.23L85.53 3.23L85.53 3.23Q85.36 3.28 85.08 3.28L85.08 3.28L83.85 3.28L83.85 3.78L84.83 3.78L84.83 12.66L83.86 12.66L83.86 13.17L86.86 13.17L86.86 12.66L85.88 12.67L85.88 8.30L85.88 8.30Q85.92 8.18 86.10 8.03L86.10 8.03L86.10 8.03Q86.28 7.88 86.56 7.76L86.56 7.76L86.56 7.76Q86.84 7.63 87.21 7.55L87.21 7.55L87.21 7.55Q87.57 7.48 87.99 7.48L87.99 7.48L87.99 7.48Q88.62 7.48 88.62 8.13L88.62 8.13L88.62 12.66L87.65 12.66L87.65 13.17L90.65 13.17L90.65 12.66ZM96.17 11.31L95.66 11.31L95.66 11.31Q95.65 11.56 95.57 11.82L95.57 11.82L95.57 11.82Q95.49 12.08 95.36 12.29L95.36 12.29L95.36 12.29Q95.23 12.50 95.03 12.63L95.03 12.63L95.03 12.63Q94.82 12.75 94.56 12.75L94.56 12.75L93.60 12.75L93.60 12.75Q93.02 12.75 92.77 12.41L92.77 12.41L92.77 12.41Q92.53 12.07 92.53 11.40L92.53 11.40L92.53 8.75L92.53 8.75Q92.53 8.08 92.80 7.78L92.80 7.78L92.80 7.78Q93.07 7.48 93.67 7.48L93.67 7.48L93.67 7.48Q94.33 7.48 94.64 7.55L94.64 7.55L94.64 7.55Q94.95 7.62 95.12 7.69L95.12 7.69L95.12 7.69Q95.12 7.85 95.03 8.06L95.03 8.06L95.03 8.06Q94.96 8.23 94.93 8.53L94.93 8.53L94.93 8.53Q95.03 8.86 95.48 8.86L95.48 8.86L95.48 8.86Q95.91 8.85 96.03 8.53L96.03 8.53L96.03 7.60L96.03 7.60Q95.66 7.31 95.06 7.14L95.06 7.14L95.06 7.14Q94.46 6.97 93.62 6.97L93.62 6.97L93.62 6.97Q93.14 6.97 92.74 7.14L92.74 7.14L92.74 7.14Q92.33 7.31 92.04 7.59L92.04 7.59L92.04 7.59Q91.74 7.88 91.58 8.28L91.58 8.28L91.58 8.28Q91.42 8.68 91.42 9.14L91.42 9.14L91.42 11.26L91.42 11.26Q91.42 11.70 91.57 12.07L91.57 12.07L91.57 12.07Q91.71 12.43 91.99 12.70L91.99 12.70L91.99 12.70Q92.26 12.96 92.64 13.11L92.64 13.11L92.64 13.11Q93.03 13.26 93.49 13.26L93.49 13.26L94.98 13.26L94.98 13.26Q95.24 13.26 95.46 13.10L95.46 13.10L95.46 13.10Q95.68 12.95 95.83 12.69L95.83 12.69L95.83 12.69Q95.98 12.43 96.07 12.07L96.07 12.07L96.07 12.07Q96.15 11.72 96.17 11.31L96.17 11.31ZM100.84 10.23L100.84 12.15L100.84 12.15Q100.60 12.38 100.18 12.53L100.18 12.53L100.18 12.53Q99.75 12.68 99.04 12.68L99.04 12.68L99.04 12.68Q98.55 12.68 98.39 12.47L98.39 12.47L98.39 12.47Q98.24 12.26 98.24 11.79L98.24 11.79L98.24 11.28L98.24 11.28Q98.24 10.74 98.50 10.50L98.50 10.50L98.50 10.50Q98.77 10.26 99.48 10.25L99.48 10.25L100.84 10.23ZM100.86 12.82L100.86 12.82L100.86 12.82Q100.90 12.98 101.05 13.12L101.05 13.12L101.05 13.12Q101.21 13.26 101.47 13.26L101.47 13.26L101.47 13.26Q101.92 13.26 102.29 13.15L102.29 13.15L102.29 13.15Q102.66 13.05 102.96 12.88L102.96 12.88L102.89 12.42L102.89 12.42Q102.76 12.49 102.52 12.60L102.52 12.60L102.52 12.60Q102.28 12.71 102.10 12.71L102.10 12.71L102.10 12.71Q101.96 12.71 101.93 12.59L101.93 12.59L101.93 12.59Q101.89 12.47 101.89 12.19L101.89 12.19L101.89 8.39L101.89 8.39Q101.89 7.67 101.42 7.32L101.42 7.32L101.42 7.32Q100.94 6.97 100.06 6.97L100.06 6.97L99.11 6.97L99.11 6.97Q98.31 6.97 97.89 7.29L97.89 7.29L97.89 7.29Q97.48 7.60 97.48 8.19L97.48 8.19L97.48 8.64L97.48 8.64Q97.58 8.99 98.01 9.02L98.01 9.02L98.01 9.02Q98.39 9.02 98.55 8.72L98.55 8.72L98.55 8.72Q98.55 8.47 98.43 8.33L98.43 8.33L98.43 8.33Q98.32 8.19 98.31 8.04L98.31 8.04L98.31 8.04Q98.31 7.74 98.56 7.61L98.56 7.61L98.56 7.61Q98.81 7.48 99.25 7.48L99.25 7.48L99.95 7.48L99.95 7.48Q100.39 7.48 100.62 7.61L100.62 7.61L100.62 7.61Q100.84 7.74 100.84 8.18L100.84 8.18L100.84 9.77L99.36 9.79L99.36 9.79Q98.27 9.80 97.71 10.15L97.71 10.15L97.71 10.15Q97.15 10.50 97.15 11.17L97.15 11.17L97.15 12.04L97.15 12.04Q97.15 12.63 97.46 12.94L97.46 12.94L97.46 12.94Q97.78 13.26 98.45 13.26L98.45 13.26L98.45 13.26Q99.08 13.26 99.70 13.17L99.70 13.17L99.70 13.17Q100.32 13.09 100.86 12.82ZM107.28 12.66L106.22 12.67L106.22 8.79L106.22 8.79Q106.22 8.54 106.33 8.30L106.33 8.30L106.33 8.30Q106.44 8.06 106.63 7.88L106.63 7.88L106.63 7.88Q106.82 7.70 107.07 7.59L107.07 7.59L107.07 7.59Q107.32 7.48 107.59 7.48L107.59 7.48L107.59 7.48Q107.74 7.48 107.82 7.51L107.82 7.51L107.82 7.51Q107.90 7.55 107.90 7.66L107.90 7.66L107.90 7.66Q107.84 7.76 107.81 7.86L107.81 7.86L107.81 7.86Q107.77 7.97 107.76 8.08L107.76 8.08L107.76 8.08Q107.74 8.19 107.74 8.29L107.74 8.29L107.74 8.29Q107.73 8.39 107.73 8.48L107.73 8.48L107.73 8.48Q107.93 8.79 108.36 8.78L108.36 8.78L108.36 8.78Q108.78 8.78 108.78 8.43L108.78 8.43L108.78 8.43Q108.78 8.29 108.77 8.04L108.77 8.04L108.77 8.04Q108.75 7.78 108.66 7.55L108.66 7.55L108.66 7.55Q108.57 7.32 108.37 7.15L108.37 7.15L108.37 7.15Q108.16 6.97 107.79 6.97L107.79 6.97L107.79 6.97Q107.31 6.97 106.90 7.17L106.90 7.17L106.90 7.17Q106.50 7.36 106.22 7.81L106.22 7.81L106.22 6.94L106.22 6.94Q106.06 7.04 105.89 7.08L105.89 7.08L105.89 7.08Q105.71 7.13 105.42 7.13L105.42 7.13L104.16 7.13L104.16 7.63L105.17 7.63L105.17 12.66L104.16 12.66L104.16 13.17L107.28 13.17L107.28 12.66ZM113.88 12.64L113.88 12.64L113.88 13.17L115.84 13.17L115.84 12.66L114.94 12.66L114.94 3.09L114.94 3.09Q114.79 3.19 114.60 3.23L114.60 3.23L114.60 3.23Q114.42 3.28 114.14 3.28L114.14 3.28L112.91 3.28L112.91 3.78L113.88 3.78L113.88 7.71L113.88 7.71Q113.46 7.32 112.88 7.15L112.88 7.15L112.88 7.15Q112.31 6.97 111.68 6.97L111.68 6.97L111.68 6.97Q111.26 6.97 110.90 7.13L110.90 7.13L110.90 7.13Q110.54 7.29 110.28 7.59L110.28 7.59L110.28 7.59Q110.03 7.88 109.89 8.29L109.89 8.29L109.89 8.29Q109.75 8.69 109.75 9.17L109.75 9.17L109.75 11.12L109.75 11.12Q109.75 12.12 110.26 12.69L110.26 12.69L110.26 12.69Q110.77 13.26 111.69 13.26L111.69 13.26L111.69 13.26Q113.02 13.26 113.88 12.64ZM113.88 8.62L113.88 11.79L113.88 11.79Q113.82 12.19 113.27 12.47L113.27 12.47L113.27 12.47Q112.71 12.75 111.87 12.75L111.87 12.75L111.87 12.75Q111.26 12.75 111.06 12.40L111.06 12.40L111.06 12.40Q110.87 12.05 110.87 11.23L110.87 11.23L110.87 9.03L110.87 9.03Q110.87 8.23 111.06 7.85L111.06 7.85L111.06 7.85Q111.26 7.48 111.83 7.48L111.83 7.48L111.83 7.48Q112.69 7.48 113.21 7.80L113.21 7.80L113.21 7.80Q113.74 8.12 113.88 8.62L113.88 8.62ZM121.28 11.61L121.28 11.61L121.28 10.85L121.28 10.85Q121.28 10.57 121.21 10.34L121.21 10.34L121.21 10.34Q121.14 10.11 120.97 9.94L120.97 9.94L120.97 9.94Q120.81 9.77 120.52 9.67L120.52 9.67L120.52 9.67Q120.23 9.58 119.81 9.58L119.81 9.58L118.92 9.58L118.92 9.58Q118.57 9.58 118.35 9.53L118.35 9.53L118.35 9.53Q118.13 9.48 118.02 9.38L118.02 9.38L118.02 9.38Q117.91 9.28 117.87 9.16L117.87 9.16L117.87 9.16Q117.82 9.03 117.82 8.88L117.82 8.88L117.82 8.29L117.82 8.29Q117.82 7.91 118.04 7.69L118.04 7.69L118.04 7.69Q118.26 7.48 118.73 7.48L118.73 7.48L118.73 7.48Q119.57 7.48 119.99 7.69L119.99 7.69L119.99 7.69Q120.41 7.91 120.51 8.25L120.51 8.25L120.51 8.74L121.02 8.72L120.99 7.01L120.89 7.01L120.89 7.01Q120.89 7.17 120.82 7.20L120.82 7.20L120.82 7.20Q120.78 7.20 120.75 7.18L120.75 7.18L120.75 7.18Q120.39 7.11 119.81 7.04L119.81 7.04L119.81 7.04Q119.24 6.97 118.57 6.97L118.57 6.97L118.57 6.97Q117.89 6.97 117.54 7.31L117.54 7.31L117.54 7.31Q117.18 7.66 117.18 8.37L117.18 8.37L117.18 9.24L117.18 9.24Q117.18 9.95 117.56 10.23L117.56 10.23L117.56 10.23Q117.94 10.51 118.54 10.51L118.54 10.51L119.55 10.51L119.55 10.51Q120.15 10.51 120.34 10.75L120.34 10.75L120.34 10.75Q120.53 10.99 120.53 11.37L120.53 11.37L120.53 11.76L120.53 11.76Q120.53 12.75 119.59 12.75L119.59 12.75L119.59 12.75Q119.18 12.75 118.83 12.70L118.83 12.70L118.83 12.70Q118.48 12.64 118.22 12.52L118.22 12.52L118.22 12.52Q117.95 12.39 117.78 12.20L117.78 12.20L117.78 12.20Q117.61 12.01 117.57 11.76L117.57 11.76L117.57 11.27L117.04 11.28L117.05 13.22L117.15 13.22L117.15 13.22Q117.15 13.02 117.22 12.99L117.22 12.99L117.28 12.98L117.28 12.98Q117.32 12.98 117.35 13.01L117.35 13.01L117.35 13.01Q117.84 13.13 118.38 13.20L118.38 13.20L118.38 13.20Q118.93 13.27 119.56 13.27L119.56 13.27L119.56 13.27Q120.40 13.27 120.84 12.84L120.84 12.84L120.84 12.84Q121.28 12.42 121.28 11.61Z"></path></g><defs data-v-fde0c5aa=""><linearGradient data-v-fde0c5aa="" gradientTransform="rotate(25)" id="ecd70d88-8954-4789-a90c-c688851ad065" x1="0%" y1="0%" x2="100%" y2="0%"><stop data-v-fde0c5aa="" offset="0%" stop-color="#006678" stop-opacity="1"></stop><stop data-v-fde0c5aa="" offset="100%" stop-color="#4FA8FF" stop-opacity="1"></stop></linearGradient></defs><g data-v-fde0c5aa="" id="522e5a63-cf77-410f-ab32-485e3dc2f84d" stroke="none" fill="url(#ecd70d88-8954-4789-a90c-c688851ad065)" transform="matrix(0.7467395564363867,0,0,0.7467395564363867,11.839705681084194,112.47633728907155)"><switch><g><path d="M60.09 38.21H44.307a2.703 2.703 0 0 0-2.7 2.699v22.577a2.703 2.703 0 0 0 2.7 2.699H60.09a2.702 2.702 0 0 0 2.699-2.699V40.909a2.702 2.702 0 0 0-2.699-2.699zm.699 25.276a.7.7 0 0 1-.699.699H44.307a.7.7 0 0 1-.7-.699V40.909a.7.7 0 0 1 .7-.699H60.09a.7.7 0 0 1 .699.699v22.577z"></path><path d="M39.911 60.29a1.2 1.2 0 0 1-1.2-1.199V36.513a1.2 1.2 0 0 1 1.2-1.198h15.783a1.2 1.2 0 0 1 1.199 1.198.5.5 0 0 0 1 0 2.2 2.2 0 0 0-2.199-2.198H39.911c-1.213 0-2.2.986-2.2 2.198v22.578c0 1.213.987 2.199 2.2 2.199a.5.5 0 0 0 0-1z"></path></g></switch></g><!----></svg>