<svg data-v-fde0c5aa="" xmlns="http://www.w3.org/2000/svg" viewBox="0 0 300 300" class="iconLeft"><!----><defs data-v-fde0c5aa=""><!----></defs><rect data-v-fde0c5aa="" fill="transparent" x="0" y="0" width="300px" height="300px" class="logo-background-square"></rect><defs data-v-fde0c5aa=""><!----></defs><g data-v-fde0c5aa="" id="bafae94f-21d8-48d4-a3cf-44b90e52332c" fill="#000000" transform="matrix(2.2093177702446742,0,0,2.2093177702446742,113.8757253413338,131.684755242208)"><path d="M5.91 8.06L5.91 9.23L8.44 9.23C8.39 10.97 7.15 12.02 5.48 12.02C3.43 12.02 2.16 10.37 2.16 8.44C2.16 6.50 3.44 4.93 5.56 4.91C6.65 4.91 7.38 5.34 7.70 5.60L8.50 4.46C8.08 4.11 7 3.59 5.57 3.59C2.55 3.59 0.61 5.75 0.61 8.44C0.61 11.17 2.54 13.34 5.51 13.34C8.41 13.34 9.96 11.21 9.96 8.90L9.96 8.06ZM16.58 6.53L16.39 7.45C15.88 6.78 15.11 6.36 14.09 6.36C12.37 6.36 11.00 7.69 11.00 9.84C11.00 12.00 12.37 13.31 14.09 13.31C15.09 13.31 15.87 12.89 16.38 12.22L16.58 13.15L17.75 13.15L17.75 6.53ZM14.42 12.12C13.23 12.12 12.44 11.14 12.44 9.84C12.44 8.55 13.23 7.55 14.42 7.55C15.66 7.55 16.46 8.55 16.46 9.84C16.46 11.14 15.66 12.12 14.42 12.12ZM26.80 6.36C25.64 6.36 25.05 6.80 24.63 7.41C24.21 6.66 23.48 6.36 22.72 6.36C21.96 6.36 21.28 6.72 20.90 7.38L20.74 6.53L19.50 6.53L19.50 13.15L20.91 13.15L20.91 9.26C21 8.15 21.53 7.57 22.37 7.57C23.28 7.57 23.64 8.31 23.64 9.39L23.64 13.15L25.05 13.15L25.05 9.60C25.05 8.30 25.58 7.57 26.50 7.57C27.42 7.57 27.78 8.31 27.78 9.38L27.78 13.15L29.20 13.15L29.20 9.28C29.20 7.12 28.06 6.36 26.80 6.36ZM37.17 9.70C37.17 7.73 35.85 6.36 33.92 6.36C31.94 6.36 30.51 7.89 30.51 9.84C30.51 11.80 31.92 13.31 34.10 13.31C35.23 13.31 36.20 12.92 36.79 12.25L35.82 11.46C35.39 11.94 34.83 12.19 34.08 12.19C32.84 12.19 32.10 11.33 32.00 10.15L37.17 10.15ZM33.92 7.50C34.96 7.50 35.63 8.12 35.77 9.17L32.05 9.17C32.26 8.17 32.94 7.50 33.92 7.50ZM48.39 3.82L48.39 7.73L44.06 7.73L44.06 3.82L42.57 3.82L42.57 13.15L44.06 13.15L44.06 8.94L48.39 8.94L48.39 13.15L49.88 13.15L49.88 3.82ZM54.80 13.33C56.25 13.33 57.76 12.67 57.76 10.31L57.76 6.53L56.35 6.53L56.35 10.32C56.35 11.43 55.81 12.12 54.80 12.12C53.80 12.12 53.26 11.43 53.26 10.32L53.26 6.53L51.84 6.53L51.84 10.31C51.84 12.67 53.36 13.33 54.80 13.33ZM63.04 6.36C62.10 6.36 61.37 6.72 60.86 7.32L60.86 3.24L59.44 3.24L59.44 13.15L60.59 13.15L60.77 12.25C61.28 12.91 62.05 13.31 63.04 13.31C64.76 13.31 66.14 12.00 66.14 9.84C66.14 7.69 64.76 6.36 63.04 6.36ZM62.71 12.12C61.47 12.12 60.67 11.14 60.67 9.84C60.67 8.55 61.47 7.55 62.71 7.55C63.90 7.55 64.69 8.55 64.69 9.84C64.69 11.14 63.90 12.12 62.71 12.12Z"></path></g><defs data-v-fde0c5aa=""><linearGradient data-v-fde0c5aa="" gradientTransform="rotate(25)" id="8b09addf-5dec-4899-96c4-a1cf9ac77e22" x1="0%" y1="0%" x2="100%" y2="0%"><stop data-v-fde0c5aa="" offset="0%" stop-color="#563F33" stop-opacity="1"></stop><stop data-v-fde0c5aa="" offset="100%" stop-color="#A3A1A1" stop-opacity="1"></stop></linearGradient></defs><g data-v-fde0c5aa="" id="4c7434c6-1ed6-4a91-8cb1-8b175fac7c9a" stroke="none" fill="url(#8b09addf-5dec-4899-96c4-a1cf9ac77e22)" transform="matrix(0.7437209610474076,0,0,0.7437209610474076,34.05023231162074,111.93599074895175)"><path d="M51.927 54.03H11.6V42.138h69.5v3.195a7.77 7.77 0 0 1 1.8.554c.609.269 1.211.615 1.8 1.031v-6.58l-.003-.033c-.001-.023-.006-.045-.007-.068a1.8 1.8 0 0 0-.085-.45c-.01-.027-.016-.056-.025-.083a1.883 1.883 0 0 0-.236-.431l-.065-.079c-.035-.043-.065-.089-.105-.129a1.843 1.843 0 0 0-.271-.221l-.004-.003-.003-.002-14.787-9.859a1.798 1.798 0 0 0-.998-.302H24.588c-.355 0-.703.105-.999.302L8.802 38.84l-.002.002c-.147.099-.27.221-.379.353-.021.025-.043.049-.063.076a1.797 1.797 0 0 0-.236.429c-.011.029-.018.06-.027.089a1.789 1.789 0 0 0-.083.442c-.001.025-.007.05-.007.075-.002.011-.005.021-.005.032V55.83a1.8 1.8 0 0 0 1.8 1.8h40.626a27.779 27.779 0 0 1 1.501-3.6zm15.639-21.752l9.39 6.26H15.744l9.389-6.26h42.433z"></path><path d="M84.699 49.1a10.772 10.772 0 0 0-1.799-1.307 6.917 6.917 0 0 0-1.8-.718 4.931 4.931 0 0 0-1.115-.145c-2.706 0-4.318 1.47-5.614 2.65-1.199 1.093-1.938 1.711-3.188 1.711-1.25 0-1.989-.618-3.189-1.712-1.296-1.18-2.908-2.649-5.613-2.649-2.884 0-6.2 2.83-8.562 7.1a24.512 24.512 0 0 0-1.614 3.6c-.932 2.591-1.509 5.472-1.509 8.458 0 3.585 2.719 7.595 6.358 7.595 2.648 0 4.353-1.254 6.001-2.467 1.927-1.418 3.919-2.885 8.127-2.885 4.207 0 6.199 1.467 8.126 2.885 1.648 1.213 3.354 2.467 6.003 2.467 3.637 0 6.354-4.01 6.354-7.595.002-7.147-3.246-13.721-6.966-16.988zm.613 20.983c-1.402 0-2.291-.606-3.869-1.768-2.17-1.597-4.871-3.584-10.26-3.584-5.39 0-8.091 1.987-10.261 3.585-1.577 1.161-2.466 1.767-3.867 1.767-1.204 0-2.759-1.938-2.759-3.995 0-3.078.738-5.996 1.801-8.458.273-.635.571-1.231.881-1.8a19.52 19.52 0 0 1 1.104-1.8c1.511-2.17 3.158-3.5 4.299-3.5 1.25 0 1.989.618 3.189 1.712.657.599 1.398 1.271 2.319 1.788a6.556 6.556 0 0 0 3.294.861 6.555 6.555 0 0 0 3.293-.861c.921-.518 1.662-1.189 2.319-1.788 1.199-1.094 1.938-1.712 3.189-1.712.333 0 .71.113 1.114.328.562.298 1.177.801 1.8 1.457.605.638 1.216 1.433 1.8 2.349 1.834 2.882 3.368 6.983 3.368 11.424.001 2.058-1.551 3.995-2.754 3.995z"></path><path d="M63.838 59.25h-1.031v-1.032a1.501 1.501 0 0 0-3 0v1.032h-1.03a1.5 1.5 0 0 0 0 3h1.03v1.03a1.5 1.5 0 0 0 3 0v-1.03h1.031a1.5 1.5 0 0 0 0-3zM80.924 55.942c-1.345 0-2.53.67-3.26 1.688a3.982 3.982 0 0 0-.757 2.329c0 2.215 1.802 4.017 4.017 4.017s4.017-1.802 4.017-4.017a3.984 3.984 0 0 0-1.021-2.648 3.994 3.994 0 0 0-2.996-1.369zm0 5.334a1.318 1.318 0 0 1 0-2.634c.726 0 1.317.591 1.317 1.317s-.591 1.317-1.317 1.317zM15.8 48.38a1.35 1.35 0 0 0 0 2.7h18.667a1.35 1.35 0 1 0 0-2.7H15.8z"></path></g><!----></svg>