<svg data-v-fde0c5aa="" xmlns="http://www.w3.org/2000/svg" viewBox="0 0 300 300" class="iconLeft"><!----><defs data-v-fde0c5aa=""><!----></defs><rect data-v-fde0c5aa="" fill="transparent" x="0" y="0" width="300px" height="300px" class="logo-background-square"></rect><defs data-v-fde0c5aa=""><!----></defs><g data-v-fde0c5aa="" id="a86b2997-faae-4ea1-a114-15160e84a1b1" fill="#000000" transform="matrix(3.058893080037885,0,0,3.058893080037885,84.08306920635029,118.9522349458967)"><path d="M0.49 13.30L4.40 13.30L4.40 12.89C3.18 12.81 3.14 12.78 3.14 12.00L3.14 8.30L3.16 8.30L3.18 8.36C3.98 9.58 4.94 10.89 6.03 12.12C6.85 13.05 7.59 13.30 8.46 13.33L9.34 13.37L9.34 13.03C8.76 12.91 8.32 12.52 7.71 11.89C6.47 10.56 5.29 9.14 4.34 7.71C5.26 6.69 6.34 5.63 7.20 4.89C7.92 4.24 8.20 4.09 9.39 4.02L9.39 3.61L5.99 3.61L5.99 4.02L6.52 4.06C6.82 4.09 6.85 4.26 6.54 4.62C5.73 5.53 4.14 7.18 3.14 8.22L3.14 4.91C3.14 4.13 3.18 4.10 4.40 4.02L4.40 3.61L0.49 3.61L0.49 4.02C1.72 4.10 1.75 4.13 1.75 4.91L1.75 12.00C1.75 12.78 1.72 12.81 0.49 12.89ZM9.56 9.93C9.56 12.14 10.51 13.47 12.80 13.47C14.35 13.47 15.15 12.60 15.53 11.49L15.11 11.27C14.71 12.08 14.18 12.75 13.08 12.75C11.34 12.75 10.99 11.07 11.02 9.62L15.05 9.62C15.34 9.62 15.61 9.55 15.61 9.09C15.61 8.26 15.34 6.27 12.78 6.27C10.60 6.27 9.56 7.83 9.56 9.93ZM11.03 9.09C11.03 8.51 11.24 6.76 12.70 6.76C14 6.76 14.15 8.09 14.15 8.64C14.15 8.90 14.07 9.09 13.68 9.09ZM16.00 6.85C16.67 6.87 16.81 6.96 17.07 7.57C17.77 9.25 18.93 12.24 19.26 13.20C19.35 13.44 19.38 13.65 19.38 13.89C19.38 14.21 19.25 14.63 19.04 15.08C18.83 15.54 18.58 15.67 18.42 15.67C18.28 15.67 18.16 15.62 17.91 15.37C17.77 15.25 17.65 15.18 17.49 15.18C17.22 15.18 16.87 15.55 16.87 15.96C16.87 16.30 17.26 16.69 17.85 16.69C18.41 16.69 19.12 16.52 19.84 14.45C20.71 11.96 21.99 8.54 22.43 7.56C22.68 7.00 22.76 6.89 23.46 6.85L23.46 6.44L20.78 6.44L20.78 6.85L21.50 6.92C21.74 6.94 21.77 7.11 21.70 7.39C21.49 8.23 20.76 10.35 20.15 12.03L20.12 12.03C19.47 10.33 18.91 8.81 18.40 7.34C18.31 7.08 18.28 6.93 18.61 6.90L19.21 6.85L19.21 6.44L16.00 6.44ZM23.60 13.30L27.02 13.30L27.02 12.89C26.03 12.82 25.97 12.80 25.97 12.08L25.97 8.81C25.97 8.46 26.00 8.26 26.11 8.04C26.40 7.49 27.03 7.03 27.78 7.03C28.73 7.03 29.25 7.56 29.25 8.78L29.25 12.08C29.25 12.80 29.20 12.82 28.20 12.89L28.20 13.30L31.61 13.30L31.61 12.89C30.62 12.82 30.56 12.80 30.56 12.08L30.56 8.50C30.56 7.08 29.79 6.27 28.50 6.27C27.47 6.27 26.82 6.78 25.96 7.34L25.76 6.27L23.67 6.62L23.67 6.97L24.21 7.04C24.57 7.10 24.65 7.17 24.65 7.67L24.65 12.08C24.65 12.80 24.61 12.82 23.60 12.89ZM32.51 9.87C32.51 12.14 33.61 13.47 35.87 13.47C38.12 13.47 39.23 12.14 39.23 9.87C39.23 7.60 38.12 6.27 35.87 6.27C33.61 6.27 32.51 7.60 32.51 9.87ZM33.96 9.87C33.96 7.94 34.58 6.76 35.87 6.76C37.16 6.76 37.77 7.94 37.77 9.87C37.77 11.80 37.16 12.98 35.87 12.98C34.58 12.98 33.96 11.80 33.96 9.87ZM40.33 7.00L41.34 7.00L41.34 11.87C41.34 13.30 42.41 13.47 42.90 13.47C43.61 13.47 44.28 13.10 44.69 12.85L44.58 12.56C44.24 12.70 43.93 12.74 43.58 12.74C43.11 12.74 42.66 12.40 42.66 11.34L42.66 7.00L44.46 7.00L44.46 6.44L42.66 6.44L42.66 4.68L42.25 4.68L41.40 6.44L40.33 6.44ZM45.40 9.93C45.40 12.14 46.35 13.47 48.64 13.47C50.19 13.47 50.99 12.60 51.37 11.49L50.95 11.27C50.55 12.08 50.02 12.75 48.92 12.75C47.18 12.75 46.83 11.07 46.86 9.62L50.89 9.62C51.18 9.62 51.45 9.55 51.45 9.09C51.45 8.26 51.18 6.27 48.62 6.27C46.44 6.27 45.40 7.83 45.40 9.93ZM46.87 9.09C46.87 8.51 47.08 6.76 48.54 6.76C49.84 6.76 49.99 8.09 49.99 8.64C49.99 8.90 49.91 9.09 49.52 9.09ZM52.57 10.96L52.71 12.80C53.21 13.24 54.07 13.47 54.89 13.47C56.56 13.47 57.51 12.59 57.51 11.40C57.51 10.16 56.76 9.60 55.31 9.16C54.74 8.97 53.82 8.68 53.82 7.90C53.82 7.17 54.38 6.76 55.08 6.76C56.07 6.76 56.55 7.53 56.64 8.39L57.05 8.39L57.05 6.75C56.59 6.41 55.87 6.27 55.24 6.27C53.73 6.27 52.70 6.99 52.70 8.32C52.70 9.48 53.65 10.00 54.81 10.35C55.44 10.54 56.32 10.86 56.32 11.82C56.32 12.53 55.76 12.98 55.02 12.98C53.89 12.98 53.26 12.15 52.98 10.96Z"></path></g><defs data-v-fde0c5aa=""><linearGradient data-v-fde0c5aa="" gradientTransform="rotate(25)" id="ef1c0c8b-cdb8-4e6c-b6ec-5c74f94674f6" x1="0%" y1="0%" x2="100%" y2="0%"><stop data-v-fde0c5aa="" offset="0%" stop-color="#006678" stop-opacity="1"></stop><stop data-v-fde0c5aa="" offset="100%" stop-color="#4FA8FF" stop-opacity="1"></stop></linearGradient></defs><g data-v-fde0c5aa="" id="037733b2-71cb-4eda-8dab-532df005732d" stroke="none" fill="url(#ef1c0c8b-cdb8-4e6c-b6ec-5c74f94674f6)" transform="matrix(0.600153674100518,0,0,0.600153674100518,40.00015339010683,119.9922590598596)"><path d="M30.673 0h-3.997v76.41c-4.103-2.337-10.685-1.913-16.739 1.513C2.012 82.406-1.996 90.314.986 95.587c2.983 5.271 11.825 5.912 19.75 1.428 5.849-3.309 9.553-8.479 9.899-13.084l.038-1.046V26.978c26.379 6.088 22.981 33.389 14.02 47.961h.968C71.639 27.978 30.673 29.976 30.673 0z"></path></g><!----></svg>