<svg data-v-fde0c5aa="" xmlns="http://www.w3.org/2000/svg" viewBox="0 0 300 300" class="iconLeft"><!----><defs data-v-fde0c5aa=""><!----></defs><rect data-v-fde0c5aa="" fill="transparent" x="0" y="0" width="300px" height="300px" class="logo-background-square"></rect><defs data-v-fde0c5aa=""><!----></defs><g data-v-fde0c5aa="" id="1fbc9609-326f-465c-bc2b-ef0533d5b196" fill="#000000" transform="matrix(1.999266429693992,0,0,1.999266429693992,109.36691706979205,128.72444736935512)"><path d="M0.78 15.25L1.64 5.19L1.64 5.19Q1.65 5.04 1.89 4.72L1.89 4.72L1.89 4.72Q2.18 4.33 2.53 4.30L2.53 4.30L2.53 4.30Q4.16 3.70 5.68 4.31L5.68 4.31L5.68 4.31Q6.75 4.73 7.37 5.66L7.37 5.66L7.37 5.66Q7.99 6.59 7.84 7.73L7.84 7.73L7.84 7.73Q7.76 8.37 7.36 9.05L7.36 9.05L7.36 9.05Q6.97 9.73 6.31 10.28L6.31 10.28L6.31 10.28Q5.26 11.16 3.88 11.44L3.88 11.44L3.88 11.44Q3.00 11.61 2.10 11.51L2.10 11.51L1.85 14.52L1.85 14.52Q1.86 14.81 1.43 15.19L1.43 15.19L1.43 15.19Q1.27 15.33 1.08 15.41L1.08 15.41L1.08 15.41Q0.90 15.48 0.83 15.42L0.83 15.42L0.83 15.42Q0.77 15.36 0.78 15.25L0.78 15.25ZM2.65 5.14L2.65 5.14L2.21 10.32L2.21 10.32Q3.40 10.60 4.47 10.39L4.47 10.39L4.47 10.39Q5.54 10.19 6.10 9.72L6.10 9.72L6.10 9.72Q6.66 9.24 6.79 8.34L6.79 8.34L6.79 8.34Q6.92 7.45 6.35 6.60L6.35 6.60L6.35 6.60Q5.78 5.75 4.92 5.42L4.92 5.42L4.92 5.42Q4.06 5.08 3.52 5.08L3.52 5.08L3.52 5.08Q2.98 5.08 2.65 5.14ZM9.72 4.02L9.72 4.02Q9.73 3.85 9.90 3.63L9.90 3.63L9.90 3.63Q10.07 3.40 10.25 3.28L10.25 3.28L10.25 3.28Q10.43 3.16 10.54 3.14L10.54 3.14L10.54 3.14Q10.79 3.07 10.78 3.29L10.78 3.29L9.74 14.55L9.74 14.55Q9.73 14.70 9.56 14.93L9.56 14.93L9.56 14.93Q9.39 15.16 9.21 15.28L9.21 15.28L9.21 15.28Q9.03 15.40 8.92 15.43L8.92 15.43L8.92 15.43Q8.67 15.50 8.68 15.27L8.68 15.27L9.72 4.02ZM17.48 13.96L17.48 13.96L17.48 13.96Q17.65 13.93 17.68 14.06L17.68 14.06L17.68 14.06Q17.71 14.20 17.56 14.42L17.56 14.42L17.56 14.42Q17.42 14.64 17.07 14.92L17.07 14.92L17.07 14.92Q16.72 15.20 16.32 15.36L16.32 15.36L16.32 15.36Q15.55 15.67 15.37 15.08L15.37 15.08L15.37 15.08Q15.29 14.84 15.30 14.20L15.30 14.20L15.30 14.20Q14.57 15.08 13.83 15.34L13.83 15.34L13.83 15.34Q13.09 15.61 12.45 15.43L12.45 15.43L12.45 15.43Q10.44 14.87 11.24 10.81L11.24 10.81L11.24 10.81Q11.51 9.46 12.18 8.60L12.18 8.60L12.18 8.60Q13.33 7.11 14.99 7.34L14.99 7.34L14.99 7.34Q15.69 7.42 16.09 7.85L16.09 7.85L16.09 7.85Q16.41 7.42 16.76 7.34L16.76 7.34L16.76 7.34Q16.87 7.31 16.93 7.36L16.93 7.36L16.93 7.36Q17.00 7.41 16.98 7.52L16.98 7.52L16.98 7.52Q16.17 13.44 16.41 14.18L16.41 14.18L16.41 14.18Q16.52 14.52 16.77 14.39L16.77 14.39L16.77 14.39Q16.88 14.34 17.09 14.16L17.09 14.16L17.09 14.16Q17.30 13.99 17.48 13.96ZM15.37 12.80L15.37 12.80L15.37 12.80Q15.47 11.68 15.51 11.37L15.51 11.37L15.51 11.37Q15.88 8.62 14.15 8.40L14.15 8.40L14.15 8.40Q13.73 8.34 13.43 8.41L13.43 8.41L13.43 8.41Q13.01 8.50 12.85 8.68L12.85 8.68L12.85 8.68Q12.50 9.13 12.28 10.28L12.28 10.28L12.28 10.28Q12.05 11.42 12.08 12.31L12.08 12.31L12.08 12.31Q12.17 14.04 13.31 14.36L13.31 14.36L13.31 14.36Q14.20 14.62 14.67 14.04L14.67 14.04L14.67 14.04Q15.02 13.62 15.37 12.80ZM23.73 8.23L23.73 8.23Q23.74 8.08 23.91 7.85L23.91 7.85L23.91 7.85Q24.07 7.63 24.25 7.50L24.25 7.50L24.25 7.50Q24.43 7.38 24.54 7.35L24.54 7.35L24.54 7.35Q24.81 7.28 24.79 7.49L24.79 7.49L24.79 7.49Q24.51 12.04 24.37 13.02L24.37 13.02L24.37 13.02Q24.26 14.18 24.01 15.02L24.01 15.02L24.01 15.02Q23.76 15.86 23.19 16.64L23.19 16.64L23.19 16.64Q22.62 17.42 21.87 17.79L21.87 17.79L21.87 17.79Q21.11 18.17 20.34 18.16L20.34 18.16L20.34 18.16Q18.76 18.14 18.17 17.18L18.17 17.18L18.17 17.18Q18.12 17.08 18.22 16.86L18.22 16.86L18.22 16.86Q18.33 16.65 18.54 16.46L18.54 16.46L18.54 16.46Q18.75 16.27 18.94 16.20L18.94 16.20L18.94 16.20Q19.14 16.13 19.21 16.23L19.21 16.23L19.21 16.23Q19.71 17.08 21.13 17.09L21.13 17.09L21.13 17.09Q22.13 17.11 22.51 16.56L22.51 16.56L22.51 16.56Q23.03 15.83 23.25 14.24L23.25 14.24L23.25 14.24Q21.88 15.89 20.40 15.41L20.40 15.41L20.40 15.41Q18.44 14.80 19.45 8.20L19.45 8.20L19.45 8.20Q19.47 8.04 19.65 7.82L19.65 7.82L19.65 7.82Q19.82 7.60 20.00 7.48L20.00 7.48L20.00 7.48Q20.17 7.36 20.29 7.34L20.29 7.34L20.29 7.34Q20.41 7.32 20.47 7.37L20.47 7.37L20.47 7.37Q20.52 7.42 20.51 7.52L20.51 7.52L20.51 7.52Q19.89 11.73 20.47 13.41L20.47 13.41L20.47 13.41Q20.75 14.21 21.28 14.38L21.28 14.38L21.28 14.38Q22.15 14.66 22.64 14.08L22.64 14.08L22.64 14.08Q23.02 13.65 23.38 12.75L23.38 12.75L23.38 12.75Q23.39 12.71 23.42 12.66L23.42 12.66L23.42 12.66Q23.55 11.23 23.73 8.23L23.73 8.23ZM30.88 5.94L30.88 5.94L30.88 5.94Q30.79 6.15 30.58 6.35L30.58 6.35L30.58 6.35Q30.37 6.55 30.16 6.63L30.16 6.63L30.16 6.63Q29.96 6.71 29.89 6.62L29.89 6.62L29.89 6.62Q29.36 5.99 28.87 5.69L28.87 5.69L28.87 5.69Q28.38 5.39 28.11 5.45L28.11 5.45L28.11 5.45Q27.99 5.87 27.93 6.85L27.93 6.85L27.83 7.90L27.83 7.90Q28.63 7.90 29.43 7.90L29.43 7.90L29.43 7.90Q29.64 7.90 29.54 8.16L29.54 8.16L29.54 8.16Q29.43 8.51 29.11 8.74L29.11 8.74L29.11 8.74Q28.80 8.96 28.64 8.96L28.64 8.96L28.64 8.96Q28.18 8.96 27.73 8.96L27.73 8.96L27.20 14.55L27.20 14.55Q27.19 14.70 27.02 14.93L27.02 14.93L27.02 14.93Q26.85 15.16 26.67 15.28L26.67 15.28L26.67 15.28Q26.49 15.40 26.38 15.43L26.38 15.43L26.38 15.43Q26.12 15.50 26.14 15.27L26.14 15.27L26.74 8.96L26.74 8.96Q26.12 8.96 25.51 8.96L25.51 8.96L25.51 8.96Q25.30 8.96 25.40 8.69L25.40 8.69L25.40 8.69Q25.51 8.34 25.82 8.12L25.82 8.12L25.82 8.12Q26.14 7.90 26.29 7.90L26.29 7.90L26.84 7.90L26.87 7.57L26.87 7.57Q26.87 7.53 26.88 7.32L26.88 7.32L26.88 7.32Q26.89 7.11 26.89 7.07L26.89 7.07L26.89 7.07Q26.89 7.03 26.91 6.85L26.91 6.85L26.91 6.85Q26.92 6.68 26.93 6.63L26.93 6.63L26.93 6.63Q26.94 6.58 26.96 6.44L26.96 6.44L26.96 6.44Q26.98 6.30 26.99 6.24L26.99 6.24L26.99 6.24Q27.01 6.19 27.03 6.08L27.03 6.08L27.03 6.08Q27.06 5.96 27.10 5.89L27.10 5.89L27.10 5.89Q27.44 5.15 27.99 4.78L27.99 4.78L27.99 4.78Q28.53 4.41 28.94 4.37L28.94 4.37L28.94 4.37Q29.75 4.30 30.90 5.64L30.90 5.64L30.90 5.64Q30.97 5.73 30.88 5.94ZM36.82 14.56L36.82 14.56Q36.81 14.71 36.64 14.94L36.64 14.94L36.64 14.94Q36.47 15.16 36.29 15.28L36.29 15.28L36.29 15.28Q36.11 15.40 35.98 15.43L35.98 15.43L35.98 15.43Q35.73 15.48 35.76 15.26L35.76 15.26L35.85 14.35L35.85 14.35Q35.46 14.80 34.90 15.12L34.90 15.12L34.90 15.12Q34.34 15.44 33.75 15.44L33.75 15.44L33.75 15.44Q31.36 15.47 31.71 12.14L31.71 12.14L32.05 8.23L32.05 8.23Q32.06 8.08 32.23 7.85L32.23 7.85L32.23 7.85Q32.40 7.62 32.58 7.50L32.58 7.50L32.58 7.50Q32.76 7.38 32.87 7.35L32.87 7.35L32.87 7.35Q33.12 7.28 33.11 7.50L33.11 7.50L32.77 11.42L32.77 11.42Q32.45 14.39 34.51 14.38L34.51 14.38L34.51 14.38Q34.92 14.38 35.11 14.27L35.11 14.27L35.11 14.27Q35.60 13.99 36.02 12.73L36.02 12.73L36.02 12.73Q36.02 12.71 36.02 12.68L36.02 12.68L36.50 8.22L36.50 8.22Q36.51 8.05 36.68 7.83L36.68 7.83L36.68 7.83Q36.85 7.62 37.03 7.50L37.03 7.50L37.03 7.50Q37.21 7.38 37.34 7.35L37.34 7.35L37.34 7.35Q37.59 7.29 37.56 7.50L37.56 7.50L36.82 14.56ZM39.51 4.02L39.51 4.02Q39.52 3.85 39.69 3.63L39.69 3.63L39.69 3.63Q39.86 3.40 40.04 3.28L40.04 3.28L40.04 3.28Q40.22 3.16 40.33 3.14L40.33 3.14L40.33 3.14Q40.59 3.07 40.57 3.29L40.57 3.29L39.54 14.55L39.54 14.55Q39.52 14.70 39.35 14.93L39.35 14.93L39.35 14.93Q39.19 15.16 39.00 15.28L39.00 15.28L39.00 15.28Q38.82 15.40 38.71 15.43L38.71 15.43L38.71 15.43Q38.46 15.50 38.47 15.27L38.47 15.27L39.51 4.02ZM44.06 15.25L44.91 5.19L44.91 5.19Q44.93 5.04 45.16 4.72L45.16 4.72L45.16 4.72Q45.46 4.33 45.81 4.30L45.81 4.30L45.81 4.30Q47.43 3.70 48.96 4.31L48.96 4.31L48.96 4.31Q50.02 4.73 50.65 5.66L50.65 5.66L50.65 5.66Q51.27 6.59 51.11 7.73L51.11 7.73L51.11 7.73Q51.03 8.37 50.64 9.05L50.64 9.05L50.64 9.05Q50.25 9.73 49.59 10.28L49.59 10.28L49.59 10.28Q48.54 11.16 47.15 11.44L47.15 11.44L47.15 11.44Q46.27 11.61 45.37 11.51L45.37 11.51L45.12 14.52L45.12 14.52Q45.14 14.81 44.70 15.19L44.70 15.19L44.70 15.19Q44.55 15.33 44.36 15.41L44.36 15.41L44.36 15.41Q44.17 15.48 44.11 15.42L44.11 15.42L44.11 15.42Q44.04 15.36 44.06 15.25L44.06 15.25ZM45.92 5.14L45.92 5.14L45.49 10.32L45.49 10.32Q46.68 10.60 47.75 10.39L47.75 10.39L47.75 10.39Q48.82 10.19 49.38 9.72L49.38 9.72L49.38 9.72Q49.94 9.24 50.06 8.34L50.06 8.34L50.06 8.34Q50.19 7.45 49.62 6.60L49.62 6.60L49.62 6.60Q49.06 5.75 48.20 5.42L48.20 5.42L48.20 5.42Q47.33 5.08 46.80 5.08L46.80 5.08L46.80 5.08Q46.26 5.08 45.92 5.14ZM52.75 8.22L52.75 8.22Q52.77 8.06 52.93 7.84L52.93 7.84L52.93 7.84Q53.10 7.62 53.28 7.50L53.28 7.50L53.28 7.50Q53.47 7.38 53.59 7.35L53.59 7.35L53.59 7.35Q53.84 7.29 53.82 7.50L53.82 7.50L53.07 14.56L53.07 14.56Q53.06 14.73 52.89 14.95L52.89 14.95L52.89 14.95Q52.72 15.16 52.54 15.28L52.54 15.28L52.54 15.28Q52.36 15.40 52.23 15.43L52.23 15.43L52.23 15.43Q51.98 15.48 52.01 15.26L52.01 15.26L52.75 8.22ZM52.82 5.81L52.82 5.81Q52.84 5.66 53.00 5.43L53.00 5.43L53.00 5.43Q53.16 5.21 53.34 5.08L53.34 5.08L53.34 5.08Q53.52 4.96 53.65 4.93L53.65 4.93L53.65 4.93Q53.90 4.86 53.89 5.08L53.89 5.08L53.82 6.06L53.82 6.06Q53.80 6.22 53.64 6.44L53.64 6.44L53.64 6.44Q53.48 6.66 53.30 6.79L53.30 6.79L53.30 6.79Q53.12 6.92 52.99 6.94L52.99 6.94L52.99 6.94Q52.74 7.01 52.75 6.79L52.75 6.79L52.82 5.81ZM60.82 13.96L60.82 13.96L60.82 13.96Q61.00 13.93 61.03 14.06L61.03 14.06L61.03 14.06Q61.05 14.20 60.91 14.42L60.91 14.42L60.91 14.42Q60.76 14.64 60.41 14.92L60.41 14.92L60.41 14.92Q60.06 15.20 59.67 15.36L59.67 15.36L59.67 15.36Q58.90 15.67 58.72 15.08L58.72 15.08L58.72 15.08Q58.63 14.84 58.65 14.20L58.65 14.20L58.65 14.20Q57.92 15.08 57.18 15.34L57.18 15.34L57.18 15.34Q56.43 15.61 55.79 15.43L55.79 15.43L55.79 15.43Q53.79 14.87 54.59 10.81L54.59 10.81L54.59 10.81Q54.85 9.46 55.52 8.60L55.52 8.60L55.52 8.60Q56.67 7.11 58.34 7.34L58.34 7.34L58.34 7.34Q59.04 7.42 59.43 7.85L59.43 7.85L59.43 7.85Q59.75 7.42 60.10 7.34L60.10 7.34L60.10 7.34Q60.21 7.31 60.28 7.36L60.28 7.36L60.28 7.36Q60.34 7.41 60.33 7.52L60.33 7.52L60.33 7.52Q59.51 13.44 59.75 14.18L59.75 14.18L59.75 14.18Q59.86 14.52 60.12 14.39L60.12 14.39L60.12 14.39Q60.23 14.34 60.44 14.16L60.44 14.16L60.44 14.16Q60.65 13.99 60.82 13.96ZM58.72 12.80L58.72 12.80L58.72 12.80Q58.81 11.68 58.86 11.37L58.86 11.37L58.86 11.37Q59.22 8.62 57.50 8.40L57.50 8.40L57.50 8.40Q57.08 8.34 56.77 8.41L56.77 8.41L56.77 8.41Q56.35 8.50 56.20 8.68L56.20 8.68L56.20 8.68Q55.85 9.13 55.62 10.28L55.62 10.28L55.62 10.28Q55.40 11.42 55.43 12.31L55.43 12.31L55.43 12.31Q55.51 14.04 56.66 14.36L56.66 14.36L56.66 14.36Q57.54 14.62 58.02 14.04L58.02 14.04L58.02 14.04Q58.37 13.62 58.72 12.80ZM62.64 8.22L62.64 8.22Q62.65 8.06 62.82 7.84L62.82 7.84L62.82 7.84Q62.99 7.62 63.17 7.50L63.17 7.50L63.17 7.50Q63.35 7.38 63.48 7.35L63.48 7.35L63.48 7.35Q63.73 7.29 63.70 7.50L63.70 7.50L63.60 8.43L63.60 8.43Q63.99 7.98 64.55 7.66L64.55 7.66L64.55 7.66Q65.11 7.34 65.70 7.34L65.70 7.34L65.70 7.34Q68.10 7.31 67.75 10.63L67.75 10.63L67.41 14.55L67.41 14.55Q67.40 14.70 67.23 14.92L67.23 14.92L67.23 14.92Q67.06 15.15 66.88 15.27L66.88 15.27L66.88 15.27Q66.70 15.40 66.58 15.43L66.58 15.43L66.58 15.43Q66.33 15.50 66.35 15.27L66.35 15.27L66.68 11.35L66.68 11.35Q67.00 8.39 64.95 8.40L64.95 8.40L64.95 8.40Q64.54 8.40 64.34 8.51L64.34 8.51L64.34 8.51Q63.85 8.79 63.43 10.05L63.43 10.05L63.43 10.05Q63.43 10.07 63.43 10.09L63.43 10.09L62.96 14.56L62.96 14.56Q62.94 14.73 62.78 14.95L62.78 14.95L62.78 14.95Q62.61 15.16 62.43 15.28L62.43 15.28L62.43 15.28Q62.24 15.40 62.12 15.43L62.12 15.43L62.12 15.43Q61.87 15.48 61.89 15.26L61.89 15.26L62.64 8.22ZM73.19 7.34L73.19 7.34L73.19 7.34Q75.77 7.56 75.26 11.55L75.26 11.55L75.26 11.55Q75.05 13.15 74.33 14.11L74.33 14.11L74.33 14.11Q73.21 15.60 71.54 15.44L71.54 15.44L71.54 15.44Q68.71 15.19 69.15 11.80L69.15 11.80L69.15 11.80Q69.27 10.84 69.52 10.11L69.52 10.11L69.52 10.11Q69.76 9.38 70.25 8.75L70.25 8.75L70.25 8.75Q71.44 7.18 73.19 7.34ZM72.38 8.40L72.38 8.40L72.38 8.40Q71.32 8.30 70.94 8.81L70.94 8.81L70.94 8.81Q70.73 9.07 70.52 9.68L70.52 9.68L70.52 9.68Q70.31 10.29 70.21 11.10L70.21 11.10L70.21 11.10Q69.82 14.15 72.35 14.38L72.35 14.38L72.35 14.38Q73.32 14.46 73.63 14.06L73.63 14.06L73.63 14.06Q73.78 13.85 73.95 13.36L73.95 13.36L73.95 13.36Q74.12 12.88 74.20 12.25L74.20 12.25L74.20 12.25Q74.68 8.60 72.38 8.40Z"></path></g><defs data-v-fde0c5aa=""><linearGradient data-v-fde0c5aa="" gradientTransform="rotate(25)" id="91916aba-0d4e-416f-a279-ad3c70b9aaed" x1="0%" y1="0%" x2="100%" y2="0%"><stop data-v-fde0c5aa="" offset="0%" stop-color="#006678" stop-opacity="1"></stop><stop data-v-fde0c5aa="" offset="100%" stop-color="#4FA8FF" stop-opacity="1"></stop></linearGradient></defs><g data-v-fde0c5aa="" id="05809add-9f9f-43cd-bfd0-61ff0ea2cf5a" stroke="none" fill="url(#91916aba-0d4e-416f-a279-ad3c70b9aaed)" transform="matrix(0.6582214064183896,0,0,0.6582214064183896,36.05067752491374,117.0890062620002)"><path d="M82.383 30.747l-10.696 3.23c-2.085.64-3.687 2.566-3.687 4.746v4.006a5.963 5.963 0 0 1-4.294 5.729l-5.627 1.735C55.464 50.954 54 53.35 54 56.074v6.349l28.77-8.691C87.957 52.165 92 50.231 94 45.816V22.717c-2 4.79-6.406 6.429-11.617 8.03zm4.455 22.86l1.51 18.238 1.51.437 1.51-.462 1.51-22.323c-1.129 1.728-3.335 3.023-6.04 4.11zm-31.214-3.908L17.608 39.157c-.84-.235-.974-1.424-.137-1.667l1.469-.446a4.972 4.972 0 0 1 2.755-.017l38.954 10.828 1.836-.531c2.015-.587 3.435-1.671 3.949-3.407L26.182 32.273c-.765-.22-1.182-.919-1.182-1.714v-2.722c0-1.187 1.027-2.043 2.167-1.715l39.742 11.442c.325-1.994 1.644-4.162 3.468-4.722l11.319-3.477c4.996-1.528 10.508-4.05 10.26-7.744 0 0-23.354-11.948-64.928-1.77l-2.861.676C22.082 21.168 20 23.093 20 25.274v4.006c0 2.653-1.098 4.987-3.646 5.729l-5.951 1.735A6.115 6.115 0 0 0 6 42.625v6.561l47 12.918v-6.349c0-2.229.737-4.784 2.624-6.056zM19.337 71.813l1.477.426 1.534-.447 1.51-16.437-6.041-1.709 1.52 18.167zm41.071-9.974l1.51 22.016 1.435.4 1.435-.45L66.298 60l-2.945.904-2.945.935z"></path></g><!----></svg>