<svg data-v-fde0c5aa="" xmlns="http://www.w3.org/2000/svg" viewBox="0 0 300 300" class="iconLeft"><!----><defs data-v-fde0c5aa=""><!----></defs><rect data-v-fde0c5aa="" fill="transparent" x="0" y="0" width="300px" height="300px" class="logo-background-square"></rect><defs data-v-fde0c5aa=""><!----></defs><g data-v-fde0c5aa="" id="b6924a77-61be-473d-ab85-985bd63e6fe0" fill="#000000" transform="matrix(1.4692469289793078,0,0,1.4692469289793078,65.91247350952766,139.49488401117085)"><path d="M13.22 9.41L13.43 9.45L13.43 9.45Q13.41 10.01 12.27 11.05L12.27 11.05L12.27 11.05Q11.13 12.08 10.37 12.22L10.37 12.22L10.37 12.22Q10.33 12.22 10.18 12.32L10.18 12.32L10.18 12.32Q10.02 12.42 9.97 12.42L9.97 12.42L8.30 12.42L8.30 12.42Q8.09 12.42 7.49 11.93L7.49 11.93L7.49 11.93Q6.97 11.49 6.78 11.26L6.78 11.26L6.78 11.26Q6.17 10.50 5.12 9.07L5.12 9.07L5.12 9.07Q4.80 9.21 4.69 9.46L4.69 9.46L4.69 9.46Q4.62 9.65 4.65 10.04L4.65 10.04L4.65 10.04Q4.80 10.14 5.18 10.51L5.18 10.51L5.18 10.51Q5.63 10.98 5.63 11.12L5.63 11.12L5.63 11.12Q5.63 11.59 4.55 12.52L4.55 12.52L4.55 12.52Q3.54 13.37 3.28 13.37L3.28 13.37L3.28 13.37Q2.25 12.43 2.25 11.96L2.25 11.96L2.25 11.96Q2.25 11.84 2.32 11.58L2.32 11.58L2.32 11.58Q2.39 11.33 2.39 11.13L2.39 11.13L2.39 5.21L2.39 5.21Q2.39 4.65 2.16 4.42L2.16 4.42L2.16 4.42Q1.68 4.00 1.20 3.58L1.20 3.58L1.20 3.58Q0.90 3.79 0.48 4.02L0.48 4.02L0.22 3.96L0.22 3.96Q0.46 3.16 1.55 2.17L1.55 2.17L1.55 2.17Q2.63 1.18 3.39 1.18L3.39 1.18L3.39 1.18Q3.44 1.18 3.95 1.58L3.95 1.58L3.95 1.58Q4.45 1.99 4.66 2.23L4.66 2.23L4.66 2.23Q5.05 1.75 5.57 1.25L5.57 1.25L5.57 1.25Q6.38 0.45 6.72 0.45L6.72 0.45L6.72 0.45Q7.38 0.45 8.36 0.92L8.36 0.92L8.36 0.92Q9.41 1.43 9.65 1.97L9.65 1.97L9.65 1.97Q9.88 2.52 9.88 3.12L9.88 3.12L9.88 3.12Q9.88 4.03 9.21 5.04L9.21 5.04L9.21 5.04Q8.72 5.77 7.59 6.92L7.59 6.92L7.59 6.92Q9.03 8.89 9.25 9.11L9.25 9.11L9.25 9.11Q10.16 10.05 11.27 10.05L11.27 10.05L11.27 10.05Q11.90 10.05 12.10 9.98L12.10 9.98L12.10 9.98Q12.66 9.69 13.22 9.41L13.22 9.41ZM7.52 5.29L7.52 5.29L7.52 5.29Q7.52 4.41 6.69 3.67L6.69 3.67L6.69 3.67Q5.85 2.93 4.94 2.93L4.94 2.93L4.76 2.93L4.76 8.16L4.76 8.16Q5.11 7.81 5.95 7.22L5.95 7.22L5.95 7.22Q6.75 6.65 7.04 6.34L7.04 6.34L7.04 6.34Q7.52 5.84 7.52 5.29ZM20.48 9.81L20.48 9.81L20.48 9.81Q20.48 10.32 19.15 11.31L19.15 11.31L19.15 11.31Q18.00 12.17 17.65 12.26L17.65 12.26L17.65 12.26Q17.12 12.42 16.77 12.42L16.77 12.42L16.77 12.42Q16.41 12.42 15.56 12.16L15.56 12.16L15.56 12.16Q14.71 11.90 14.45 11.69L14.45 11.69L14.45 11.69Q13.61 11.03 13.61 9.41L13.61 9.41L13.61 9.41Q13.61 6.57 17.37 4.51L17.37 4.51L17.37 4.51Q17.47 4.69 17.93 4.87L17.93 4.87L17.93 4.87Q18.38 5.05 18.86 5.05L18.86 5.05L18.86 5.05Q19.12 5.05 19.25 4.96L19.25 4.96L19.25 4.96Q19.43 4.83 19.67 4.76L19.67 4.76L19.67 4.76Q19.73 4.82 19.73 4.89L19.73 4.89L19.73 4.89Q19.73 5.05 19.33 5.52L19.33 5.52L19.33 5.52Q18.16 6.89 17.21 6.89L17.21 6.89L17.21 6.89Q16.94 6.89 16.45 6.76L16.45 6.76L16.45 6.76Q15.92 6.62 15.72 6.48L15.72 6.48L15.72 6.48Q15.62 6.66 15.48 7.08L15.48 7.08L15.50 8.04L15.50 8.04Q15.51 8.01 15.81 7.79L15.81 7.79L15.81 7.79Q16.11 7.57 16.21 7.57L16.21 7.57L16.21 7.57Q17.26 7.78 17.35 7.78L17.35 7.78L17.35 7.78Q18.28 7.78 18.72 7.49L18.72 7.49L18.72 7.49Q19.46 6.99 19.78 6.87L19.78 6.87L19.82 7.01L19.82 7.01Q19.17 8.08 18.13 8.81L18.13 8.81L18.13 8.81Q17.09 9.55 16.09 9.65L16.09 9.65L16.09 9.65Q16.23 9.91 17.04 10.25L17.04 10.25L17.04 10.25Q17.85 10.58 18.42 10.58L18.42 10.58L18.42 10.58Q18.98 10.58 19.43 10.28L19.43 10.28L19.43 10.28Q20.10 9.81 20.43 9.69L20.43 9.69L20.43 9.69Q20.48 9.74 20.48 9.81ZM28.59 4.47L28.59 4.47L28.59 4.47Q28.59 5.00 27.26 5.98L27.26 5.98L27.26 5.98Q26.07 6.85 25.82 6.86L25.82 6.86L25.82 6.86Q25.73 6.87 25.51 6.89L25.51 6.89L25.51 6.89Q25.28 6.92 25.24 6.92L25.24 6.92L25.24 6.92Q24.46 6.92 23.74 6.19L23.74 6.19L23.74 6.19Q23.42 6.66 23.42 7.76L23.42 7.76L23.42 7.76Q23.42 8.78 23.94 9.53L23.94 9.53L23.94 9.53Q24.58 10.47 25.77 10.47L25.77 10.47L25.77 10.47Q26.18 10.47 26.67 10.22L26.67 10.22L26.67 10.22Q27.41 9.84 27.76 9.72L27.76 9.72L27.76 9.72Q27.55 10.57 26.25 11.50L26.25 11.50L26.25 11.50Q24.95 12.43 24.01 12.43L24.01 12.43L24.01 12.43Q22.78 12.43 22.08 11.54L22.08 11.54L22.08 11.54Q21.46 10.72 21.46 9.51L21.46 9.51L21.46 9.51Q21.46 9.49 21.56 8.50L21.56 8.50L21.56 8.50Q21.63 7.81 22.58 6.43L22.58 6.43L22.58 6.43Q22.79 6.13 23.70 5.22L23.70 5.22L23.70 5.22Q24.84 4.12 25.20 4.12L25.20 4.12L25.20 4.12Q25.51 4.12 25.95 4.54L25.95 4.54L25.95 4.54Q26.39 4.96 27.01 4.96L27.01 4.96L27.01 4.96Q27.34 4.96 27.66 4.77L27.66 4.77L27.66 4.77Q28.20 4.47 28.50 4.35L28.50 4.35L28.50 4.35Q28.59 4.44 28.59 4.47ZM37.49 7.03L37.49 7.03L37.49 7.03Q37.49 8.20 36.12 9.55L36.12 9.55L36.12 9.55Q34.75 10.78 33.39 12.01L33.39 12.01L33.39 12.01Q33.24 12.17 32.73 12.26L32.73 12.26L32.73 12.26Q32.28 12.36 31.92 12.36L31.92 12.36L31.92 12.36Q30.94 12.36 30.06 11.56L30.06 11.56L30.06 11.56Q29.13 10.72 29.13 9.67L29.13 9.67L29.13 9.67Q29.13 8.26 30.25 6.47L30.25 6.47L30.25 6.47Q31.42 4.61 32.84 3.89L32.84 3.89L32.84 3.89Q32.86 3.92 32.84 4.06L32.84 4.06L32.84 4.06Q32.84 4.17 32.90 4.17L32.90 4.17L32.90 4.17Q33.04 4.17 33.58 4.03L33.58 4.03L33.58 4.03Q34.12 3.89 34.55 3.89L34.55 3.89L34.55 3.89Q35.81 3.89 36.68 4.89L36.68 4.89L36.68 4.89Q37.49 5.82 37.49 7.03ZM35.34 9.32L35.34 9.32L35.34 8.29L35.34 8.29Q35.34 7.77 34.60 6.97L34.60 6.97L34.60 6.97Q33.87 6.17 33.42 6.09L33.42 6.09L33.42 6.09Q32.83 5.99 32.65 5.99L32.65 5.99L32.65 5.99Q31.77 5.99 31.49 6.45L31.49 6.45L31.49 6.45Q31.29 6.79 31.29 7.76L31.29 7.76L31.29 7.76Q31.29 8.71 32.12 9.48L32.12 9.48L32.12 9.48Q32.94 10.25 33.82 10.25L33.82 10.25L33.82 10.25Q34.31 10.25 34.51 10.12L34.51 10.12L34.51 10.12Q34.65 10.04 35.34 9.32ZM46.41 4.54L46.63 4.54L46.63 4.54Q46.34 5.38 45.36 6.20L45.36 6.20L45.36 6.20Q44.38 7.03 43.57 7.03L43.57 7.03L43.57 7.03Q42.98 7.03 42.67 6.90L42.67 6.90L42.67 6.90Q42.29 6.73 42.01 6.27L42.01 6.27L42.01 6.27Q41.76 6.44 41.55 6.66L41.55 6.66L41.55 10.11L41.55 10.11Q41.64 10.16 41.92 10.54L41.92 10.54L41.92 10.54Q42.20 10.91 42.20 10.92L42.20 10.92L42.20 10.92Q42.20 11.38 41.27 12.17L41.27 12.17L41.27 12.17Q40.46 12.85 40.21 12.91L40.21 12.91L40.21 12.91Q39.82 12.38 39.49 12.07L39.49 12.07L39.49 8.60L39.49 8.60Q39.49 8.54 39.46 8.48L39.46 8.48L39.46 8.48Q39.42 8.43 39.42 8.39L39.42 8.39L39.42 6.90L39.42 6.90Q38.64 6.23 38.60 6.23L38.60 6.23L38.60 6.23Q38.57 6.23 38.02 6.55L38.02 6.55L37.83 6.50L37.83 6.50Q37.93 6.16 38.81 5.19L38.81 5.19L38.81 5.19Q39.82 4.09 40.35 4.09L40.35 4.09L40.35 4.09Q40.45 4.09 40.88 4.44L40.88 4.44L40.88 4.44Q41.16 4.68 41.45 4.90L41.45 4.90L41.45 4.90Q41.45 5.21 41.50 5.87L41.50 5.87L41.50 5.87Q42.64 4.68 43.88 4.00L43.88 4.00L43.88 4.00Q44.14 4.58 44.52 4.80L44.52 4.80L44.52 4.80Q44.84 4.97 45.43 4.97L45.43 4.97L45.43 4.97Q45.65 4.97 45.86 4.87L45.86 4.87L45.86 4.87Q46.13 4.70 46.41 4.54L46.41 4.54ZM54.11 7.17L54.11 7.17L54.11 7.17Q54.11 7.14 54.13 7.45L54.13 7.45L54.13 7.45Q54.15 7.76 54.15 7.98L54.15 7.98L54.15 7.98Q54.14 8.29 54.05 8.43L54.05 8.43L54.05 8.43Q53.21 9.88 52.19 10.98L52.19 10.98L52.19 10.98Q50.72 12.56 49.53 12.56L49.53 12.56L49.53 12.56Q48.48 12.56 47.88 11.52L47.88 11.52L47.88 11.52Q47.39 10.71 47.39 9.80L47.39 9.80L47.39 9.80Q47.39 8.58 48.45 7.06L48.45 7.06L48.45 7.06Q49.52 5.54 50.69 5.00L50.69 5.00L50.69 5.00Q50.82 5.19 50.83 5.21L50.83 5.21L50.83 5.21Q50.96 5.36 51.10 5.36L51.10 5.36L52.07 5.36L52.07 5.36Q52.12 5.28 52.09 5.10L52.09 5.10L52.09 5.10Q52.07 4.82 52.07 4.83L52.07 4.83L52.07 3.93L52.07 3.93Q52.07 3.82 51.65 3.53L51.65 3.53L51.65 3.53Q51.17 3.19 51.13 3.14L51.13 3.14L51.13 3.14Q50.99 3.25 50.83 3.35L50.83 3.35L50.83 3.35Q50.64 3.46 50.40 3.46L50.40 3.46L50.40 3.46Q50.40 3.02 51.42 2.11L51.42 2.11L51.42 2.11Q52.44 1.20 52.78 1.20L52.78 1.20L52.78 1.20Q52.84 1.20 53.40 1.66L53.40 1.66L53.40 1.66Q53.96 2.11 53.96 2.20L53.96 2.20L53.96 3.42L53.96 3.42Q53.96 3.44 54.00 3.60L54.00 3.60L54.00 3.60Q54.04 3.77 54.04 3.81L54.04 3.81L54.04 5.68L54.04 5.68Q54.04 5.68 54.07 6.31L54.07 6.31L54.07 6.31Q54.11 6.94 54.11 7.17ZM52.21 8.65L52.21 8.65L52.12 6.29L52.12 6.29Q51.93 6.44 51.41 6.78L51.41 6.78L51.41 6.78Q50.71 7.22 50.54 7.22L50.54 7.22L49.41 7.22L49.41 7.22Q49.39 7.34 49.34 7.57L49.34 7.57L49.34 7.57Q49.29 7.74 49.29 8.19L49.29 8.19L49.29 8.19Q49.29 9.18 49.83 9.91L49.83 9.91L49.83 9.91Q50.47 10.79 51.58 10.70L51.58 10.70L51.58 10.70Q52.07 10.21 52.18 9.69L52.18 9.69L52.18 9.69Q52.21 9.51 52.21 8.65ZM62.20 9.81L62.20 9.81L62.20 9.81Q62.20 10.32 60.87 11.31L60.87 11.31L60.87 11.31Q59.72 12.17 59.37 12.26L59.37 12.26L59.37 12.26Q58.84 12.42 58.49 12.42L58.49 12.42L58.49 12.42Q58.13 12.42 57.28 12.16L57.28 12.16L57.28 12.16Q56.43 11.90 56.17 11.69L56.17 11.69L56.17 11.69Q55.33 11.03 55.33 9.41L55.33 9.41L55.33 9.41Q55.33 6.57 59.09 4.51L59.09 4.51L59.09 4.51Q59.19 4.69 59.65 4.87L59.65 4.87L59.65 4.87Q60.10 5.05 60.58 5.05L60.58 5.05L60.58 5.05Q60.84 5.05 60.97 4.96L60.97 4.96L60.97 4.96Q61.15 4.83 61.39 4.76L61.39 4.76L61.39 4.76Q61.45 4.82 61.45 4.89L61.45 4.89L61.45 4.89Q61.45 5.05 61.05 5.52L61.05 5.52L61.05 5.52Q59.88 6.89 58.93 6.89L58.93 6.89L58.93 6.89Q58.66 6.89 58.17 6.76L58.17 6.76L58.17 6.76Q57.64 6.62 57.44 6.48L57.44 6.48L57.44 6.48Q57.34 6.66 57.20 7.08L57.20 7.08L57.22 8.04L57.22 8.04Q57.23 8.01 57.53 7.79L57.53 7.79L57.53 7.79Q57.83 7.57 57.93 7.57L57.93 7.57L57.93 7.57Q58.98 7.78 59.07 7.78L59.07 7.78L59.07 7.78Q60.00 7.78 60.44 7.49L60.44 7.49L60.44 7.49Q61.18 6.99 61.50 6.87L61.50 6.87L61.54 7.01L61.54 7.01Q60.89 8.08 59.85 8.81L59.85 8.81L59.85 8.81Q58.81 9.55 57.81 9.65L57.81 9.65L57.81 9.65Q57.95 9.91 58.76 10.25L58.76 10.25L58.76 10.25Q59.57 10.58 60.14 10.58L60.14 10.58L60.14 10.58Q60.70 10.58 61.15 10.28L61.15 10.28L61.15 10.28Q61.82 9.81 62.15 9.69L62.15 9.69L62.15 9.69Q62.20 9.74 62.20 9.81ZM70.84 4.54L71.06 4.54L71.06 4.54Q70.77 5.38 69.79 6.20L69.79 6.20L69.79 6.20Q68.81 7.03 68.00 7.03L68.00 7.03L68.00 7.03Q67.41 7.03 67.10 6.90L67.10 6.90L67.10 6.90Q66.72 6.73 66.44 6.27L66.44 6.27L66.44 6.27Q66.19 6.44 65.98 6.66L65.98 6.66L65.98 10.11L65.98 10.11Q66.07 10.16 66.35 10.54L66.35 10.54L66.35 10.54Q66.63 10.91 66.63 10.92L66.63 10.92L66.63 10.92Q66.63 11.38 65.70 12.17L65.70 12.17L65.70 12.17Q64.89 12.85 64.64 12.91L64.64 12.91L64.64 12.91Q64.25 12.38 63.92 12.07L63.92 12.07L63.92 8.60L63.92 8.60Q63.92 8.54 63.89 8.48L63.89 8.48L63.89 8.48Q63.85 8.43 63.85 8.39L63.85 8.39L63.85 6.90L63.85 6.90Q63.07 6.23 63.03 6.23L63.03 6.23L63.03 6.23Q63.00 6.23 62.45 6.55L62.45 6.55L62.26 6.50L62.26 6.50Q62.36 6.16 63.24 5.19L63.24 5.19L63.24 5.19Q64.25 4.09 64.78 4.09L64.78 4.09L64.78 4.09Q64.88 4.09 65.31 4.44L65.31 4.44L65.31 4.44Q65.59 4.68 65.88 4.90L65.88 4.90L65.88 4.90Q65.88 5.21 65.93 5.87L65.93 5.87L65.93 5.87Q67.07 4.68 68.31 4.00L68.31 4.00L68.31 4.00Q68.57 4.58 68.95 4.80L68.95 4.80L68.95 4.80Q69.27 4.97 69.86 4.97L69.86 4.97L69.86 4.97Q70.08 4.97 70.29 4.87L70.29 4.87L70.29 4.87Q70.56 4.70 70.84 4.54L70.84 4.54ZM89.21 10.14L89.21 10.30L89.21 10.30Q89.21 10.64 88.21 11.60L88.21 11.60L88.21 11.60Q87.22 12.56 86.88 12.56L86.88 12.56L86.88 12.56Q86.91 12.56 86.20 12.19L86.20 12.19L86.20 12.19Q85.48 11.82 85.27 11.84L85.27 11.84L85.27 10.15L85.27 10.15Q85.27 9.16 84.57 8.01L84.57 8.01L84.57 8.01Q83.80 6.75 82.91 6.75L82.91 6.75L82.91 6.75Q81.98 6.75 81.98 8.18L81.98 8.18L81.98 9.48L81.98 9.48Q82.33 9.83 83.10 10.51L83.10 10.51L83.10 10.51Q82.96 10.91 82.19 11.82L82.19 11.82L82.19 11.82Q81.30 12.89 80.78 12.89L80.78 12.89L80.78 12.89Q80.60 12.89 79.58 11.87L79.58 11.87L79.58 10.19L79.58 10.19Q79.58 10.16 79.63 9.92L79.63 9.92L79.63 9.92Q79.69 9.67 79.69 9.63L79.69 9.63L79.69 4.83L79.69 4.83Q79.48 4.62 78.74 3.95L78.74 3.95L78.74 3.95Q77.87 4.62 77.73 4.62L77.73 4.62L77.49 4.62L77.49 4.62Q77.45 4.58 77.45 4.51L77.45 4.51L77.45 4.51Q77.45 4.10 78.77 2.65L78.77 2.65L78.77 2.65Q80.09 1.20 80.60 1.20L80.60 1.20L80.60 1.20Q80.70 1.20 81.40 1.79L81.40 1.79L81.40 1.79Q82.10 2.38 82.10 2.52L82.10 2.52L82.12 6.15L82.12 6.15Q83.48 4.45 84.84 2.77L84.84 2.77L84.84 2.77Q86.67 0.60 87.30 0.64L87.30 0.64L87.30 0.64Q87.35 0.67 87.35 0.76L87.35 0.76L87.35 0.76Q87.35 1.04 86.07 2.56L86.07 2.56L86.07 2.56Q85.30 3.47 84.52 4.37L84.52 4.37L84.52 4.37Q84.60 4.37 84.82 4.35L84.82 4.35L84.82 4.35Q85.04 4.33 85.08 4.33L85.08 4.33L85.08 4.33Q86.27 4.33 87.01 5.64L87.01 5.64L87.01 5.64Q87.49 6.51 87.68 7.70L87.68 7.70L87.71 9.39L87.71 9.39Q87.75 9.35 87.79 9.35L87.79 9.35L87.79 9.35Q87.95 9.35 88.54 9.72L88.54 9.72L88.54 9.72Q88.87 9.93 89.21 10.14L89.21 10.14ZM98.84 10.44L98.84 10.44L98.84 10.44Q98.73 10.77 97.92 11.68L97.92 11.68L97.92 11.68Q97.03 12.68 96.63 12.68L96.63 12.68L96.63 12.68Q96.57 12.68 95.96 12.11L95.96 12.11L95.96 12.11Q95.30 11.51 95.27 11.28L95.27 11.28L95.27 11.28Q94.91 11.76 94.00 12.22L94.00 12.22L94.00 12.22Q93.09 12.68 92.57 12.68L92.57 12.68L92.57 12.68Q91.69 12.68 91.08 11.89L91.08 11.89L91.08 11.89Q90.57 11.20 90.57 10.46L90.57 10.46L90.57 10.46Q90.57 8.64 92.20 6.72L92.20 6.72L92.20 6.72Q93.66 5.01 94.96 4.65L94.96 4.65L94.96 4.65Q95.00 4.63 95.16 4.55L95.16 4.55L95.16 4.55Q95.31 4.47 95.37 4.47L95.37 4.47L95.37 4.47Q95.35 4.47 95.77 4.75L95.77 4.75L95.77 4.75Q96.18 5.04 96.67 5.04L96.67 5.04L96.67 5.04Q97.19 5.04 97.41 4.93L97.41 4.93L97.41 4.93Q97.59 4.83 97.83 4.86L97.83 4.86L97.83 4.86Q97.87 5.19 97.19 5.85L97.19 5.85L97.19 7.04L97.19 7.04Q97.19 7.10 97.23 7.24L97.23 7.24L97.23 7.24Q97.27 7.38 97.27 7.42L97.27 7.42L97.27 9.59L97.27 9.59Q97.64 9.94 98.34 10.58L98.34 10.58L98.34 10.58Q98.71 10.42 98.84 10.44ZM95.30 10.39L95.30 10.39L95.30 9.37L95.30 9.37Q95.30 9.31 95.26 9.17L95.26 9.17L95.26 9.17Q95.21 9.03 95.21 8.99L95.21 8.99L95.21 7.07L95.21 7.07Q95.19 7.06 94.65 7.06L94.65 7.06L94.65 7.06Q94.40 7.06 94.02 6.79L94.02 6.79L94.02 6.79Q93.76 6.59 93.49 6.40L93.49 6.40L93.49 6.40Q93.06 6.62 92.78 7.42L92.78 7.42L92.78 7.42Q92.54 8.09 92.54 8.67L92.54 8.67L92.54 8.67Q92.54 9.31 93.02 9.95L93.02 9.95L93.02 9.95Q93.56 10.71 94.33 10.71L94.33 10.71L94.33 10.71Q94.64 10.71 95.30 10.39ZM107.69 4.54L107.91 4.54L107.91 4.54Q107.62 5.38 106.64 6.20L106.64 6.20L106.64 6.20Q105.66 7.03 104.85 7.03L104.85 7.03L104.85 7.03Q104.26 7.03 103.95 6.90L103.95 6.90L103.95 6.90Q103.57 6.73 103.29 6.27L103.29 6.27L103.29 6.27Q103.04 6.44 102.83 6.66L102.83 6.66L102.83 10.11L102.83 10.11Q102.91 10.16 103.19 10.54L103.19 10.54L103.19 10.54Q103.47 10.91 103.47 10.92L103.47 10.92L103.47 10.92Q103.47 11.38 102.55 12.17L102.55 12.17L102.55 12.17Q101.74 12.85 101.49 12.91L101.49 12.91L101.49 12.91Q101.09 12.38 100.77 12.07L100.77 12.07L100.77 8.60L100.77 8.60Q100.77 8.54 100.74 8.48L100.74 8.48L100.74 8.48Q100.70 8.43 100.70 8.39L100.70 8.39L100.70 6.90L100.70 6.90Q99.92 6.23 99.88 6.23L99.88 6.23L99.88 6.23Q99.85 6.23 99.30 6.55L99.30 6.55L99.11 6.50L99.11 6.50Q99.20 6.16 100.09 5.19L100.09 5.19L100.09 5.19Q101.09 4.09 101.63 4.09L101.63 4.09L101.63 4.09Q101.72 4.09 102.16 4.44L102.16 4.44L102.16 4.44Q102.44 4.68 102.73 4.90L102.73 4.90L102.73 4.90Q102.73 5.21 102.77 5.87L102.77 5.87L102.77 5.87Q103.92 4.68 105.15 4.00L105.15 4.00L105.15 4.00Q105.42 4.58 105.80 4.80L105.80 4.80L105.80 4.80Q106.12 4.97 106.71 4.97L106.71 4.97L106.71 4.97Q106.93 4.97 107.14 4.87L107.14 4.87L107.14 4.87Q107.41 4.70 107.69 4.54L107.69 4.54ZM116.91 10.44L116.91 10.44L116.91 10.44Q116.80 10.77 115.99 11.68L115.99 11.68L115.99 11.68Q115.11 12.68 114.70 12.68L114.70 12.68L114.70 12.68Q114.65 12.68 114.03 12.11L114.03 12.11L114.03 12.11Q113.37 11.51 113.34 11.28L113.34 11.28L113.34 11.28Q112.98 11.76 112.07 12.22L112.07 12.22L112.07 12.22Q111.16 12.68 110.64 12.68L110.64 12.68L110.64 12.68Q109.76 12.68 109.16 11.89L109.16 11.89L109.16 11.89Q108.64 11.20 108.64 10.46L108.64 10.46L108.64 10.46Q108.64 8.64 110.28 6.72L110.28 6.72L110.28 6.72Q111.73 5.01 113.04 4.65L113.04 4.65L113.04 4.65Q113.08 4.63 113.23 4.55L113.23 4.55L113.23 4.55Q113.39 4.47 113.44 4.47L113.44 4.47L113.44 4.47Q113.43 4.47 113.84 4.75L113.84 4.75L113.84 4.75Q114.25 5.04 114.74 5.04L114.74 5.04L114.74 5.04Q115.26 5.04 115.49 4.93L115.49 4.93L115.49 4.93Q115.67 4.83 115.91 4.86L115.91 4.86L115.91 4.86Q115.95 5.19 115.26 5.85L115.26 5.85L115.26 7.04L115.26 7.04Q115.26 7.10 115.30 7.24L115.30 7.24L115.30 7.24Q115.35 7.38 115.35 7.42L115.35 7.42L115.35 9.59L115.35 9.59Q115.71 9.94 116.41 10.58L116.41 10.58L116.41 10.58Q116.79 10.42 116.91 10.44ZM113.37 10.39L113.37 10.39L113.37 9.37L113.37 9.37Q113.37 9.31 113.33 9.17L113.33 9.17L113.33 9.17Q113.29 9.03 113.29 8.99L113.29 8.99L113.29 7.07L113.29 7.07Q113.26 7.06 112.73 7.06L112.73 7.06L112.73 7.06Q112.48 7.06 112.10 6.79L112.10 6.79L112.10 6.79Q111.83 6.59 111.57 6.40L111.57 6.40L111.57 6.40Q111.13 6.62 110.85 7.42L110.85 7.42L110.85 7.42Q110.61 8.09 110.61 8.67L110.61 8.67L110.61 8.67Q110.61 9.31 111.09 9.95L111.09 9.95L111.09 9.95Q111.64 10.71 112.41 10.71L112.41 10.71L112.41 10.71Q112.71 10.71 113.37 10.39ZM124.17 5.14L124.35 5.19L124.35 5.19Q124.28 5.73 123.39 6.50L123.39 6.50L123.39 6.50Q122.50 7.28 121.86 7.43L121.86 7.43L121.86 9.17L121.86 9.17Q121.86 9.35 121.69 10.02L121.69 10.02L121.69 10.02Q121.35 11.40 121.00 12.07L121.00 12.07L121.00 12.07Q120.32 13.38 119.10 13.85L119.10 13.85L119.10 13.85Q119.17 13.72 119.56 12.47L119.56 12.47L119.56 12.47Q119.97 11.13 119.97 10.79L119.97 10.79L119.97 7.21L119.97 7.21Q119.60 7.00 119.18 7.00L119.18 7.00L119.18 7.00Q118.82 7.00 118.47 7.15L118.47 7.15L118.47 7.15Q118.38 7.18 117.80 7.52L117.80 7.52L117.61 7.46L117.61 7.46Q117.68 7.00 118.51 6.26L118.51 6.26L118.51 6.26Q119.22 5.61 119.90 5.26L119.90 5.26L119.90 3.84L119.90 3.84Q119.90 3.78 119.58 3.48L119.58 3.48L119.58 3.48Q119.27 3.18 119.22 3.18L119.22 3.18L119.22 3.18Q119.20 3.18 119.04 3.26L119.04 3.26L119.04 3.26Q118.89 3.35 118.72 3.32L118.72 3.32L118.72 3.32Q118.83 2.98 119.60 2.13L119.60 2.13L119.60 2.13Q120.46 1.18 120.88 1.18L120.88 1.18L120.88 1.18Q120.95 1.18 121.77 2.00L121.77 2.00L121.77 4.76L121.77 4.76Q121.77 5.31 122.16 5.46L122.16 5.46L122.16 5.46Q122.36 5.54 122.93 5.54L122.93 5.54L122.93 5.54Q123.34 5.54 123.44 5.52L123.44 5.52L123.44 5.52Q123.54 5.49 124.17 5.14L124.17 5.14ZM132.10 9.81L132.10 9.81L132.10 9.81Q132.10 10.32 130.77 11.31L130.77 11.31L130.77 11.31Q129.63 12.17 129.28 12.26L129.28 12.26L129.28 12.26Q128.74 12.42 128.39 12.42L128.39 12.42L128.39 12.42Q128.03 12.42 127.18 12.16L127.18 12.16L127.18 12.16Q126.34 11.90 126.07 11.69L126.07 11.69L126.07 11.69Q125.23 11.03 125.23 9.41L125.23 9.41L125.23 9.41Q125.23 6.57 129.00 4.51L129.00 4.51L129.00 4.51Q129.09 4.69 129.55 4.87L129.55 4.87L129.55 4.87Q130.00 5.05 130.48 5.05L130.48 5.05L130.48 5.05Q130.75 5.05 130.87 4.96L130.87 4.96L130.87 4.96Q131.05 4.83 131.29 4.76L131.29 4.76L131.29 4.76Q131.35 4.82 131.35 4.89L131.35 4.89L131.35 4.89Q131.35 5.05 130.96 5.52L130.96 5.52L130.96 5.52Q129.78 6.89 128.83 6.89L128.83 6.89L128.83 6.89Q128.56 6.89 128.07 6.76L128.07 6.76L128.07 6.76Q127.54 6.62 127.34 6.48L127.34 6.48L127.34 6.48Q127.25 6.66 127.11 7.08L127.11 7.08L127.12 8.04L127.12 8.04Q127.13 8.01 127.44 7.79L127.44 7.79L127.44 7.79Q127.74 7.57 127.83 7.57L127.83 7.57L127.83 7.57Q128.88 7.78 128.97 7.78L128.97 7.78L128.97 7.78Q129.91 7.78 130.34 7.49L130.34 7.49L130.34 7.49Q131.08 6.99 131.40 6.87L131.40 6.87L131.45 7.01L131.45 7.01Q130.79 8.08 129.75 8.81L129.75 8.81L129.75 8.81Q128.72 9.55 127.71 9.65L127.71 9.65L127.71 9.65Q127.85 9.91 128.66 10.25L128.66 10.25L128.66 10.25Q129.47 10.58 130.05 10.58L130.05 10.58L130.05 10.58Q130.61 10.58 131.05 10.28L131.05 10.28L131.05 10.28Q131.73 9.81 132.05 9.69L132.05 9.69L132.05 9.69Q132.10 9.74 132.10 9.81Z"></path></g><defs data-v-fde0c5aa=""><linearGradient data-v-fde0c5aa="" gradientTransform="rotate(25)" id="ff6a821a-d40e-45aa-8fc7-4a119a9983a0" x1="0%" y1="0%" x2="100%" y2="0%"><stop data-v-fde0c5aa="" offset="0%" stop-color="#5F2517" stop-opacity="1"></stop><stop data-v-fde0c5aa="" offset="100%" stop-color="#CAB08D" stop-opacity="1"></stop></linearGradient></defs><g data-v-fde0c5aa="" id="07ce2c3a-2d4e-41d0-8743-d5951074d6f1" stroke="none" fill="url(#ff6a821a-d40e-45aa-8fc7-4a119a9983a0)" transform="matrix(0.000628457154876427,0,0,0.000628457154876427,30.90619857864742,134.2890212206342)"><path d="M27550 8545c-60 132-242 534-465 1027-370 818-857 1898-1192 2612h1l-14 28c-72 152-136 287-190 399-606 1322-1088 2865-1480 4401-420 1645-734 3272-985 4615 242 45 466 80 708 14l8-2 6-2c394-117 719-429 1162-427 326 1 653 134 920 311 220 146 415 275 1381 168 233-26 902-151 1460-322 184-57 354-117 486-178 827-516 709-892 645-2007-13-233-27-469-29-709l-4-82c-16-306-29-570 17-786-1-109-38-406-88-736-64-425-152-885-215-1077-142-435 58-1682 58-1685 15-96 105-162 201-147s162 105 147 201c-1 3-187 1168-71 1523 69 212 162 694 229 1134 29 192 53 379 67 537l34 52c183 274 348 823 533 1440 221 737 473 1575 796 2093 85 136 122 156 147 169 124 65 165 86 269 665 23 130 42 283 61 440 31 255 64 525 106 651 36 108 83 175 126 239 144 211 262 382 130 1294-43 296-207 365-132 376 11 2 64-12 140-32 64-17 141-36 223-53 293-61 615-85 930-87 420-3 827 34 1128 73 81 10 123 17 161 22 110 16 193 29 230 22 7-1-9-100-70-439l-658-3199-1-6c-47-272-234-871-399-1399-147-470-277-886-286-1012-61-881-516-2095-933-3205-375-1000-720-1919-733-2485l-461-1954c-180-720-1208-1127-2135-1493-685-271-1320-522-1601-895-45-60-78-114-110-167-38-63-75-124-113-165l-52-57c-18 105-45 215-95 304zm-3665-613c14-62 25-124 33-188 17-142 22-293 20-474-15-22-29-44-44-67-134-214-232-454-326-761-8-27-31-40-55-54-29-17-58-34-92-62-156-129-262-351-328-591-80-291-105-619-84-829 15-153 70-295 157-405 53-66 117-122 191-161-26-156-48-312-61-469-18-211-20-426 8-650 13-104 32-201 59-294 28-94 63-182 108-267 92-175 173-222 303-298 32-19 69-40 107-66 104-69 127-103 160-152 29-44 63-95 127-167 57-64 115-122 186-175 71-54 153-101 255-143 278-114 702-159 1131-155 493 4 1001 72 1303 171 194 63 360 152 501 252 139 98 255 208 353 314 580 635 444 1379 354 1877-15 81-28 154-36 216 71 48 134 102 187 175 78 106 125 240 128 434 2 120-6 261-22 397-16 140-40 278-68 390-36 143-91 255-160 351-68 94-147 168-236 238-99 77-112 129-131 207-18 72-40 158-95 278-61 131-130 257-208 375-1 149 7 278 23 397 8 60 18 118 30 176 17 12 33 27 50 46l244 263c67 72 111 146 157 221 30 49 60 99 89 138 220 292 811 526 1449 778 1008 398 2125 840 2348 1739l1 2 469 1987v22c4 501 342 1403 711 2387 425 1134 890 2374 955 3304 6 83 130 481 271 930 169 539 359 1150 410 1445l657 3194 1 4c110 610 66 801-213 851-63 11-130 9-208-1 40 211 54 447 44 679-14 335-77 666-184 906-96 214-433 664-798 945-275 212-576 337-841 239l-93-34-19-97c-61-314 92-505 276-735 196-245 437-547 363-1159-15-125-28-195-51-216-11-10-32-16-65-19l-9 77c-11 98-22 194-38 288-73 434-232 764-813 666l-98-16-37-92c-77-193-77-519-77-880 0-173 0-354-9-532-113 29-192 49-268 38-272-39-248-213-167-775 112-777 29-898-73-1046-56-82-117-170-169-325-55-163-90-450-123-721-20-161-39-317-57-420-74-408-77-409-86-414-61-31-147-77-284-296-348-559-607-1421-835-2179-81-268-157-523-231-742 2 55 5 111 8 170l4 84v8c2 221 15 461 29 698 52 910 102 1781-520 2137 8 64 19 130 29 195 52 327 103 652-54 965 236 276 464 665 649 1099 202 471 355 999 417 1493l7 59c281 290 573 630 900 1058 141 185 241 365 263 575s-36 436-211 706c-51 79-63 91-96 124l-21 21-137 143-126-153c-164-199-465-464-740-707-63-56-125-111-184-163 9 182 19 374 29 568 30 564 60 1155 74 1686 23 923 24 1983 26 3048 2 1545 4 3101 73 4271 19 323 60 646 100 969 55 440 110 880 113 1356 2 260 2 594 2 966 1 1283 3 3028 61 3815 18 251-35 482-126 686-88 198-211 369-335 510-133 150-299 260-488 338 28 60 60 129 93 202 115 252 254 555 335 641 66 71 163 156 268 248 474 418 1107 975 752 1738-107 229-286 371-489 464-188 86-390 126-569 157-73 13-142 29-209 45-400 97-773 187-1021-363-103-229-78-210-90-219-26-19-70-50-175-197-171-241-190-454-208-654-21-235-40-445-528-649-307-129-475-345-548-599-71-249-46-530 30-792-147-26-288-53-418-78-105-20-204-39-250-48l-138-25-6-141c-14-337-16-668-19-999-3-327-5-655-19-999-12-280-31-653-51-1056-53-1035-116-2278-99-2920 4-143 11-286 17-435 24-519 51-1101-34-1541-137-706-227-1418-317-2131-177-1398-354-2800-907-4204l-7-18c-558 1408-736 2817-913 4222-90 713-180 1425-317 2131-86 440-59 1021-34 1540 7 149 14 292 17 435 18 642-46 1885-99 2920-21 404-40 777-51 1057-14 344-17 672-19 999-3 331-5 662-19 999l-6 141-138 25c-46 8-146 28-250 48-131 25-271 52-418 78 76 262 102 543 30 792-73 254-241 471-548 599-488 204-507 415-528 649-18 200-37 413-208 654-105 148-148 179-175 197-13 9 13-9-90 219-248 549-621 459-1021 363-68-16-136-33-209-45-179-31-380-71-569-157-203-92-382-234-489-464-355-763 278-1321 752-1738 105-93 201-178 268-248 81-86 219-389 335-641 33-73 65-142 93-202-189-78-355-188-488-338-124-141-247-312-335-510-91-204-145-435-126-686 58-786 60-2531 61-3814 0-373 1-706 2-966 3-477 58-916 113-1356 40-323 81-646 100-969 70-1171 71-2727 73-4271 1-1065 3-2125 26-3048 7-264 19-567 34-894l1-18c-13 43-25 86-38 127-176 598-310 1055-1081 1184l-224 37 19-226c17-194 96-506 196-831 132-430 300-889 400-1122l22-50c235-548 436-1018 654-1454-122-24-215-42-288-57l-109-22-129-25-13-131c-124-1289 468-2203 844-2784 144-222 251-388 254-460v-5c-14-424-28-1055 172-1409 2-118-5-326-18-528-13-205-32-400-51-484-31-136-83-262-134-384-60-143-117-282-148-445-92-490 64-893 206-1260-59 69-117 138-166 196-25 30-48 58-82 98-213 250-206 329-197 428 10 116 22 247-71 480-75 189-188 298-319 425-190 184-428 415-603 1057l-4 13c-126 267-252 533-378 800l-9 13c-31 43-57 73-84 105-19 22-39 45-67 82-524 685-685 1525-808 2169-58 306-109 571-188 771-134 341-323 384-522 332-4 138-4 277-4 410 0 361 1 687-77 880l-37 92-98 16c-581 98-740-232-813-666-16-94-27-191-38-288l-9-77c-33 3-55 9-65 19-23 21-36 91-51 216-75 612 167 914 363 1159 184 230 336 421 276 735l-19 97-93 34c-265 98-566-27-841-239-365-281-703-731-798-945-108-243-159-628-154-1018 4-305 43-618 115-870-31 2-67 4-106 8-167 13-300-7-381-144-62-105-59-263 34-517 304-831 689-1796 1121-2801 398-926 841-1897 1306-2843 875-1782 1325-3108 1867-4704 100-296 204-602 352-1029 48-145 99-306 149-462 343-1089 602-1908 1811-2346 85-31 189-67 305-107 704-245 1837-639 2027-979l6-9c150-235 260-368 385-383 3 0 5-1 8-1zm395-267c-3 42-7 82-12 122-18 147-49 285-98 434 12 44 22 94 31 149 305 1777 842 3085 1215 3993l1 1c53-114 107-226 162-336l8 4c309-681 805-1779 1177-2604 206-457 373-827 471-1038l5-10 3-5c38-65 57-194 72-300 8-54 15-104 26-148-25-100-45-200-59-306-1-10-3-20-4-30-283 292-622 507-987 618-437 133-908 117-1366-95-167-77-333-181-494-314-54-45-105-89-153-134zm1456-5810c-388-4-763 33-995 129-71 29-128 62-177 99s-92 80-135 128c-49 55-75 94-97 127-55 84-94 142-260 251-48 32-87 55-122 75-76 45-123 72-169 159-34 65-61 132-82 202-21 72-36 150-47 236v1c-24 197-22 389-6 578 16 195 48 388 81 583l29 170-171 32c-58 11-107 45-146 93-46 57-75 134-83 219-17 175 4 453 73 702 49 179 120 336 214 414 11 9 28 19 45 29 85 50 165 97 213 254 85 277 173 492 289 678 115 184 260 343 463 510 136 112 276 200 418 266 375 173 760 187 1117 78 363-110 698-346 963-668 134-162 250-347 344-549 41-90 59-158 73-216 38-148 62-246 257-398 66-51 122-104 167-166 43-60 78-134 103-233 25-98 46-220 60-343 14-126 22-250 20-351-2-111-24-181-61-231-38-53-102-94-176-138l-86-51v-101c0-103 23-226 49-370 78-429 196-1072-267-1577-81-89-178-180-296-263-115-81-250-154-408-205-273-89-740-150-1197-154zM15374 24245c-86 231-131 558-135 880-5 344 36 674 124 870 80 180 371 563 692 810 137 106 274 183 389 198-25-108-107-211-201-328-238-297-531-664-439-1420 26-210 61-341 164-435 104-94 240-118 463-110l147 5 21 145c11 77 21 159 30 241 10 93 21 186 35 269 35 207 100 372 300 383 26-153 26-390 26-648 0-182 0-374 8-556-3-1-5-2-8-3-299-108-602-182-886-230-266-45-515-67-730-73zm5813 20785c-33 67-72 152-114 244-127 276-279 608-397 735-82 87-182 176-292 273-390 343-909 801-665 1326 65 141 182 230 315 291 148 67 324 102 482 129 75 13 154 32 233 51 253 61 489 118 617-166 142-315 145-317 207-361 8-6 21-15 92-115 116-164 131-327 145-480 31-347 59-658 743-944 194-81 300-215 344-371 55-192 27-422-41-638-553 84-1159 132-1667 24zm-467-18052c-24 395-45 773-62 1113-16 333-28 633-34 885-23 923-24 1979-26 3039-2 1555-4 3122-73 4292-20 344-61 668-102 991-55 436-109 870-112 1315-2 260-2 593-2 965-1 1294-3 3053-61 3839-14 189 27 363 96 518 72 161 174 303 277 421 552 626 2013 345 2935 168l114-22c9-289 12-568 14-847 3-335 5-670 19-1011 12-301 31-666 51-1061 53-1031 116-2268 99-2892-4-129-10-276-17-429-25-539-53-1144 40-1622 137-706 226-1407 314-2109 180-1428 361-2859 936-4309 14-35 13-35 39-101 96-245 142-364 300-354 142 9 184 118 265 331 18 48 39 103 56 146 568 1441 748 2867 928 4288 89 702 177 1402 314 2109 93 478 65 1083 40 1622-7 153-14 300-17 429-17 624 46 1862 99 2893 20 395 39 759 51 1061 14 342 17 677 19 1011 2 279 4 558 14 847l114 22c922 177 2382 458 2935-168 104-117 205-259 277-421 69-155 110-329 96-518-58-786-60-2546-61-3839 0-372-1-705-2-965-3-445-57-880-112-1315-40-323-81-647-102-991-70-1170-71-2737-73-4292-1-1061-3-2117-26-3040-13-512-44-1108-74-1676-17-323-33-637-46-934-19-18-40-39-64-61-1270 341-2572 548-3898 612-1321 63-2666-16-4025-249l-162-28 17-164c19-182 36-348 53-501-85-1-180-6-280-15-159-13-336-35-516-61-216 364-406 731-564 1079zm8997 18052c-508 108-1114 60-1667-24-68 216-97 446-41 638 45 156 150 289 344 371 684 286 712 597 743 944 14 153 28 316 145 480 71 100 84 109 92 115 62 44 65 46 207 361 128 284 364 227 617 166 78-19 158-38 233-51 158-27 334-62 482-129 134-61 250-151 315-291 244-525-276-983-665-1326-110-97-211-186-292-273-118-126-270-459-397-735-42-92-81-177-114-244zm-4272-14912c-47-3-30 8-3 29 27-18 48-26 3-29zm-4384-13337c20-177 28-334 35-474 12-233 21-424 78-597 37-113 10-276-22-471-60-366-135-828 89-1424 34-91 136-137 227-103s137 136 103 227c-191 508-124 919-71 1244 39 241 72 443 9 636-42 130-51 298-61 504-12 229-25 500-87 826l-4 46c-17 219-100 433-187 659-125 323-261 677-188 1069 24 126 75 249 127 375 56 135 114 273 152 442 24 104 45 319 59 539 10 152 17 308 19 432-2 163 953 665 1530 838l3 1 4 1 5 1c253-1353 569-2990 987-4628 363-1423 804-2854 1349-4118-37-91-81-198-127-311-380-924-926-2254-1237-4067-2-13-1-25 2-36-17 30-38 65-64 107-261 456-1467 876-2216 1136-111 39-212 74-301 106-1045 378-1281 1126-1594 2120-45 144-92 293-151 469l-1 1c-100 290-228 666-351 1029-545 1605-997 2938-1885 4746-455 926-896 1894-1298 2828-433 1008-815 1965-1114 2782-53 144-69 207-62 220 12 20 12-27 50-30 44-4 96-7 155-9 48-2 100-4 154-5 272-4 614 16 983 78 303 51 626 130 948 246 51 18 99 42 148 66 37 18 74 37 110 51 61 24 123 24 171-97 67-170 115-420 170-709 130-680 299-1566 874-2317 32-42 57-71 81-99 18-21 35-40 56-69l348-737c199-723 474-990 694-1203 103-100 191-185 238-303 62-156 54-243 48-320-16-180-29-325 280-687 12-14 44-53 80-95 112-134 262-314 408-457 226-222 206-116 246-461zm1664 7288c-72 343-126 638-177 989-50 346-96 744-153 1291 1280 208 2544 277 3787 217 1231-59 2439-244 3619-546-913-882-2891-2769-3447-2691-1170 490-1636 246-1968 73-107-56-194-102-274-89-479 79-949 360-1388 755zm-604 1555c27-231 53-431 79-615 25-172 50-330 78-487-38 42-75 85-112 129-243 286-470 599-677 921 120 16 235 29 342 38 108 9 207 14 290 14zm8336-924c-74-341-187-686-323-1004-170-396-374-749-583-996l-2 1-5 3-2 1-1 1-2 1-1 1h-1l-2 1-1 1h-1l-2 1-1 1h-1l-2 1h-2l-2 1h-2l-2 1h-1l-1 1-2 1h-1l-1 1-2 1-1 1-2 1-1 1-2 1-1 1-2 1-1 1-2 1-1 1-2 1-2 1-1 1-2 1-1 1-2 1-1 1-2 1-1 1-2 1-1 1-1 1-1 1h-1l-1 1h-2l-1 1h-2l-1 1h-2l-1 1h-2l-1 1h-1l-1 1-1 1-1 1-1 1-1 1-3 2-1 1-1 1-1 1-1 1-1 1-7 4-7 4-7 4-7 4-7 4-7 4-7 4-7 4-7 4-7 4-7 4-7 4-7 4-7 4-7 4-7 4-7 4-7 4-7 4-7 4-7 4-7 4-7 4-7 4-7 4-7 4-8 4-8 4-8 4-8 4-8 4-8 4-8 4-8 4-8 4-8 4-8 4-8 4-8 4-8 4-8 4-8 4-9 4-9 4-9 4-9 4-9 4-9 4-9 4-9 4-9 4-9 4-10 4-10 4-10 4-10 4-10 4-10 4-10 4-10 4-11 4-11 4-11 4-11 4-4 1-4 1h-1c-84 27-161 50-236 73-79 24-156 47-231 72 263 202 505 380 730 547 477 353 880 651 1282 1013zm2496 306c12 197 11 409 11 609 0 258-1 495 26 648 200-11 265-176 300-383 14-83 24-176 35-269 9-81 18-163 30-241l21-145 147-5c223-8 360 16 463 110 103 93 138 224 164 435 92 756-201 1123-439 1420-94 117-176 220-201 328 114-15 252-93 389-198 321-247 612-630 692-810 89-200 142-484 154-777 10-252-11-507-65-717-279-33-634-62-999-59-245 2-495 17-728 55zm-11870-2481c-56 109-134 230-224 370-337 520-860 1328-799 2429 105 21 239 48 368 73 350-642 766-1231 1427-1923 26-28 58-60 91-93 109-111 238-242 329-370l-3-1-4-1-4-1c-456-110-818-188-1169-473l-5-4-1-1-5-4zm2802-14185c33-40 76-62 35-57-5 1-15 20-35 57z"></path></g><!----></svg>